# MagicaVoxel @ Ephtracy

# group
o 

# material
mtllib CraftingTable.mtl
usemtl palette

# normals
vn -1 0 0
vn 1 0 0
vn 0 0 1
vn 0 0 -1
vn 0 -1 0
vn 0 1 0

# texcoords
vt 0.310547 0.5
vt 0.341797 0.5
vt 0.365234 0.5
vt 0.958984 0.5

# verts
v -0.5 0 0.5
v -0.5 0 -0.5
v -0.5 0.1 0.4
v -0.5 0.1 -0.4
v -0.5 0.2 -0.1
v -0.5 0.2 -0.3
v -0.5 0.3 0.3
v -0.5 0.3 -0.1
v -0.5 0.4 0.3
v -0.5 0.4 -0.1
v -0.5 0.5 -0.1
v -0.5 0.5 -0.3
v -0.5 0.7 0.2
v -0.5 0.7 -0.2
v -0.5 0.8 0.3
v -0.5 0.8 0.2
v -0.5 0.8 0.1
v -0.5 0.8 -0.1
v -0.5 0.8 -0.2
v -0.5 0.8 -0.3
v -0.5 0.9 0.4
v -0.5 0.9 0.3
v -0.5 0.9 0.2
v -0.5 0.9 0.1
v -0.5 0.9 -0.1
v -0.5 0.9 -0.2
v -0.5 0.9 -0.3
v -0.5 0.9 -0.4
v -0.5 1 0.5
v -0.5 1 0.2
v -0.5 1 -0.2
v -0.5 1 -0.5
v 0.5 0 0.5
v 0.5 0 -0.5
v 0.5 0.1 0.4
v 0.5 0.1 -0.4
v 0.5 0.3 0.3
v 0.5 0.3 0
v 0.5 0.3 -0.1
v 0.5 0.3 -0.3
v 0.5 0.4 0.3
v 0.5 0.4 0
v 0.5 0.4 -0.1
v 0.5 0.4 -0.3
v 0.5 0.5 0.3
v 0.5 0.5 0
v 0.5 0.5 -0.1
v 0.5 0.5 -0.3
v 0.5 0.6 0.3
v 0.5 0.6 0
v 0.5 0.6 -0.1
v 0.5 0.6 -0.3
v 0.5 0.7 0.2
v 0.5 0.7 -0.2
v 0.5 0.8 0.3
v 0.5 0.8 0.2
v 0.5 0.8 0.1
v 0.5 0.8 -0.1
v 0.5 0.8 -0.2
v 0.5 0.8 -0.3
v 0.5 0.9 0.4
v 0.5 0.9 0.3
v 0.5 0.9 0.2
v 0.5 0.9 0.1
v 0.5 0.9 -0.1
v 0.5 0.9 -0.2
v 0.5 0.9 -0.3
v 0.5 0.9 -0.4
v 0.5 1 0.5
v 0.5 1 0.2
v 0.5 1 -0.2
v 0.5 1 -0.5
v -0.5 0 0.5
v -0.5 1 0.5
v -0.4 0.1 0.5
v -0.4 0.9 0.5
v -0.3 0.2 0.5
v -0.3 0.3 0.5
v -0.3 0.8 0.5
v -0.3 0.9 0.5
v -0.2 0.7 0.5
v -0.2 0.8 0.5
v -0.2 0.9 0.5
v -0.2 1 0.5
v -0.1 0.3 0.5
v -0.1 0.4 0.5
v -0.1 0.8 0.5
v -0.1 0.9 0.5
v 0 0.2 0.5
v 0 0.3 0.5
v 0.1 0.8 0.5
v 0.1 0.9 0.5
v 0.2 0.3 0.5
v 0.2 0.4 0.5
v 0.2 0.7 0.5
v 0.2 0.8 0.5
v 0.2 0.9 0.5
v 0.2 1 0.5
v 0.3 0.2 0.5
v 0.3 0.3 0.5
v 0.3 0.8 0.5
v 0.3 0.9 0.5
v 0.4 0.1 0.5
v 0.4 0.9 0.5
v 0.5 0 0.5
v 0.5 1 0.5
v -0.5 0 -0.5
v -0.5 1 -0.5
v -0.4 0.1 -0.5
v -0.4 0.9 -0.5
v -0.3 0.3 -0.5
v -0.3 0.5 -0.5
v -0.3 0.8 -0.5
v -0.3 0.9 -0.5
v -0.2 0.3 -0.5
v -0.2 0.4 -0.5
v -0.2 0.7 -0.5
v -0.2 0.8 -0.5
v -0.2 0.9 -0.5
v -0.2 1 -0.5
v -0.1 0.4 -0.5
v -0.1 0.5 -0.5
v -0.1 0.8 -0.5
v -0.1 0.9 -0.5
v 0.1 0.8 -0.5
v 0.1 0.9 -0.5
v 0.2 0.7 -0.5
v 0.2 0.8 -0.5
v 0.2 0.9 -0.5
v 0.2 1 -0.5
v 0.3 0.3 -0.5
v 0.3 0.4 -0.5
v 0.3 0.8 -0.5
v 0.3 0.9 -0.5
v 0.4 0.1 -0.5
v 0.4 0.9 -0.5
v 0.5 0 -0.5
v 0.5 1 -0.5
v -0.5 0 0.5
v 0.5 0 0.5
v -0.4 0 0.4
v 0.4 0 0.4
v -0.4 0 -0.4
v 0.4 0 -0.4
v -0.5 0 -0.5
v 0.5 0 -0.5
v -0.5 1 0.5
v -0.2 1 0.5
v 0.2 1 0.5
v 0.5 1 0.5
v -0.3 1 0.4
v -0.2 1 0.4
v -0.1 1 0.4
v 0.1 1 0.4
v 0.2 1 0.4
v 0.3 1 0.4
v -0.4 1 0.3
v -0.3 1 0.3
v -0.2 1 0.3
v -0.1 1 0.3
v 0.1 1 0.3
v 0.2 1 0.3
v 0.3 1 0.3
v 0.4 1 0.3
v -0.5 1 0.2
v -0.4 1 0.2
v -0.3 1 0.2
v -0.2 1 0.2
v -0.1 1 0.2
v 0.1 1 0.2
v 0.2 1 0.2
v 0.3 1 0.2
v 0.4 1 0.2
v 0.5 1 0.2
v -0.4 1 0.1
v -0.3 1 0.1
v -0.2 1 0.1
v 0.2 1 0.1
v 0.3 1 0.1
v 0.4 1 0.1
v -0.4 1 -0.1
v -0.3 1 -0.1
v -0.2 1 -0.1
v 0.2 1 -0.1
v 0.3 1 -0.1
v 0.4 1 -0.1
v -0.5 1 -0.2
v -0.4 1 -0.2
v -0.3 1 -0.2
v -0.2 1 -0.2
v -0.1 1 -0.2
v 0.1 1 -0.2
v 0.2 1 -0.2
v 0.3 1 -0.2
v 0.4 1 -0.2
v 0.5 1 -0.2
v -0.4 1 -0.3
v -0.3 1 -0.3
v -0.2 1 -0.3
v -0.1 1 -0.3
v 0.1 1 -0.3
v 0.2 1 -0.3
v 0.3 1 -0.3
v 0.4 1 -0.3
v -0.3 1 -0.4
v -0.2 1 -0.4
v -0.1 1 -0.4
v 0.1 1 -0.4
v 0.2 1 -0.4
v 0.3 1 -0.4
v -0.5 1 -0.5
v -0.2 1 -0.5
v 0.2 1 -0.5
v 0.5 1 -0.5

# faces
f 3/1/1 2/1/1 1/1/1
f 4/1/1 2/1/1 3/1/1
f 5/3/1 4/3/1 3/3/1
f 6/3/1 4/3/1 5/3/1
f 7/3/1 5/3/1 3/3/1
f 8/4/1 6/4/1 5/4/1
f 8/3/1 5/3/1 7/3/1
f 9/3/1 7/3/1 3/3/1
f 9/1/1 8/1/1 7/1/1
f 10/4/1 6/4/1 8/4/1
f 10/1/1 8/1/1 9/1/1
f 11/3/1 10/3/1 9/3/1
f 11/4/1 6/4/1 10/4/1
f 12/3/1 4/3/1 6/3/1
f 12/4/1 6/4/1 11/4/1
f 13/3/1 11/3/1 9/3/1
f 13/3/1 12/3/1 11/3/1
f 14/3/1 12/3/1 13/3/1
f 15/3/1 9/3/1 3/3/1
f 15/3/1 13/3/1 9/3/1
f 16/1/1 14/1/1 13/1/1
f 16/3/1 13/3/1 15/3/1
f 17/1/1 14/1/1 16/1/1
f 18/1/1 14/1/1 17/1/1
f 19/3/1 12/3/1 14/3/1
f 19/1/1 14/1/1 18/1/1
f 20/3/1 4/3/1 12/3/1
f 20/3/1 12/3/1 19/3/1
f 21/1/1 3/1/1 1/1/1
f 21/3/1 15/3/1 3/3/1
f 22/1/1 16/1/1 15/1/1
f 22/3/1 15/3/1 21/3/1
f 22/1/1 17/1/1 16/1/1
f 23/1/1 17/1/1 22/1/1
f 24/3/1 18/3/1 17/3/1
f 24/1/1 17/1/1 23/1/1
f 25/1/1 19/1/1 18/1/1
f 25/3/1 18/3/1 24/3/1
f 25/1/1 20/1/1 19/1/1
f 26/1/1 20/1/1 25/1/1
f 27/3/1 4/3/1 20/3/1
f 27/1/1 20/1/1 26/1/1
f 28/1/1 2/1/1 4/1/1
f 28/3/1 4/3/1 27/3/1
f 29/1/1 23/1/1 22/1/1
f 29/1/1 22/1/1 21/1/1
f 29/1/1 21/1/1 1/1/1
f 30/3/1 26/3/1 25/3/1
f 30/1/1 23/1/1 29/1/1
f 30/3/1 24/3/1 23/3/1
f 30/3/1 25/3/1 24/3/1
f 31/1/1 27/1/1 26/1/1
f 31/3/1 26/3/1 30/3/1
f 31/1/1 28/1/1 27/1/1
f 32/1/1 2/1/1 28/1/1
f 32/1/1 28/1/1 31/1/1
f 33/1/2 34/1/2 35/1/2
f 35/1/2 34/1/2 36/1/2
f 35/3/2 36/3/2 37/3/2
f 37/3/2 36/3/2 38/3/2
f 38/3/2 36/3/2 39/3/2
f 39/3/2 36/3/2 40/3/2
f 35/3/2 37/3/2 41/3/2
f 37/4/2 38/4/2 41/4/2
f 38/3/2 39/3/2 42/3/2
f 41/4/2 38/4/2 42/4/2
f 39/1/2 40/1/2 43/1/2
f 42/3/2 39/3/2 43/3/2
f 40/3/2 36/3/2 44/3/2
f 43/1/2 40/1/2 44/1/2
f 41/3/2 42/3/2 45/3/2
f 35/3/2 41/3/2 45/3/2
f 42/4/2 43/4/2 46/4/2
f 45/3/2 42/3/2 46/3/2
f 43/3/2 44/3/2 47/3/2
f 46/4/2 43/4/2 47/4/2
f 44/3/2 36/3/2 48/3/2
f 47/3/2 44/3/2 48/3/2
f 35/3/2 45/3/2 49/3/2
f 45/4/2 46/4/2 49/4/2
f 46/3/2 47/3/2 50/3/2
f 49/4/2 46/4/2 50/4/2
f 47/1/2 48/1/2 51/1/2
f 50/3/2 47/3/2 51/3/2
f 48/3/2 36/3/2 52/3/2
f 51/1/2 48/1/2 52/1/2
f 50/3/2 51/3/2 53/3/2
f 49/3/2 50/3/2 53/3/2
f 51/3/2 52/3/2 53/3/2
f 53/3/2 52/3/2 54/3/2
f 35/3/2 49/3/2 55/3/2
f 49/3/2 53/3/2 55/3/2
f 53/1/2 54/1/2 56/1/2
f 55/3/2 53/3/2 56/3/2
f 56/1/2 54/1/2 57/1/2
f 57/1/2 54/1/2 58/1/2
f 54/3/2 52/3/2 59/3/2
f 58/1/2 54/1/2 59/1/2
f 52/3/2 36/3/2 60/3/2
f 59/3/2 52/3/2 60/3/2
f 33/1/2 35/1/2 61/1/2
f 35/3/2 55/3/2 61/3/2
f 55/1/2 56/1/2 62/1/2
f 61/3/2 55/3/2 62/3/2
f 56/1/2 57/1/2 62/1/2
f 62/1/2 57/1/2 63/1/2
f 57/3/2 58/3/2 64/3/2
f 63/1/2 57/1/2 64/1/2
f 58/1/2 59/1/2 65/1/2
f 64/3/2 58/3/2 65/3/2
f 59/1/2 60/1/2 65/1/2
f 65/1/2 60/1/2 66/1/2
f 60/3/2 36/3/2 67/3/2
f 66/1/2 60/1/2 67/1/2
f 36/1/2 34/1/2 68/1/2
f 67/3/2 36/3/2 68/3/2
f 62/1/2 63/1/2 69/1/2
f 61/1/2 62/1/2 69/1/2
f 33/1/2 61/1/2 69/1/2
f 65/3/2 66/3/2 70/3/2
f 69/1/2 63/1/2 70/1/2
f 63/3/2 64/3/2 70/3/2
f 64/3/2 65/3/2 70/3/2
f 66/1/2 67/1/2 71/1/2
f 70/3/2 66/3/2 71/3/2
f 67/1/2 68/1/2 71/1/2
f 68/1/2 34/1/2 72/1/2
f 71/1/2 68/1/2 72/1/2
f 75/1/3 74/1/3 73/1/3
f 76/1/3 74/1/3 75/1/3
f 77/3/3 76/3/3 75/3/3
f 78/3/3 76/3/3 77/3/3
f 79/3/3 76/3/3 78/3/3
f 80/1/3 74/1/3 76/1/3
f 80/3/3 76/3/3 79/3/3
f 81/3/3 79/3/3 78/3/3
f 82/1/3 80/1/3 79/1/3
f 82/3/3 79/3/3 81/3/3
f 83/1/3 74/1/3 80/1/3
f 83/1/3 80/1/3 82/1/3
f 84/1/3 74/1/3 83/1/3
f 85/1/3 78/1/3 77/1/3
f 85/3/3 81/3/3 78/3/3
f 86/3/3 81/3/3 85/3/3
f 87/1/3 82/1/3 81/1/3
f 87/1/3 83/1/3 82/1/3
f 88/3/3 84/3/3 83/3/3
f 88/1/3 83/1/3 87/1/3
f 89/3/3 77/3/3 75/3/3
f 89/1/3 85/1/3 77/1/3
f 90/4/3 86/4/3 85/4/3
f 90/1/3 85/1/3 89/1/3
f 91/1/3 87/1/3 81/1/3
f 91/3/3 88/3/3 87/3/3
f 92/3/3 84/3/3 88/3/3
f 92/3/3 88/3/3 91/3/3
f 93/4/3 86/4/3 90/4/3
f 93/4/3 90/4/3 89/4/3
f 94/3/3 81/3/3 86/3/3
f 94/4/3 86/4/3 93/4/3
f 95/1/3 91/1/3 81/1/3
f 95/3/3 81/3/3 94/3/3
f 95/1/3 92/1/3 91/1/3
f 96/1/3 92/1/3 95/1/3
f 97/3/3 84/3/3 92/3/3
f 97/1/3 92/1/3 96/1/3
f 98/3/3 84/3/3 97/3/3
f 99/4/3 93/4/3 89/4/3
f 99/3/3 89/3/3 75/3/3
f 100/3/3 94/3/3 93/3/3
f 100/4/3 93/4/3 99/4/3
f 100/3/3 96/3/3 95/3/3
f 100/3/3 95/3/3 94/3/3
f 101/1/3 97/1/3 96/1/3
f 101/3/3 96/3/3 100/3/3
f 101/1/3 98/1/3 97/1/3
f 102/1/3 98/1/3 101/1/3
f 103/1/3 75/1/3 73/1/3
f 103/3/3 99/3/3 75/3/3
f 103/3/3 102/3/3 101/3/3
f 103/3/3 101/3/3 100/3/3
f 103/3/3 100/3/3 99/3/3
f 104/1/3 98/1/3 102/1/3
f 104/3/3 102/3/3 103/3/3
f 105/1/3 103/1/3 73/1/3
f 105/1/3 104/1/3 103/1/3
f 106/1/3 98/1/3 104/1/3
f 106/1/3 104/1/3 105/1/3
f 107/1/4 108/1/4 109/1/4
f 109/1/4 108/1/4 110/1/4
f 109/3/4 110/3/4 111/3/4
f 111/3/4 110/3/4 112/3/4
f 112/3/4 110/3/4 113/3/4
f 110/1/4 108/1/4 114/1/4
f 113/3/4 110/3/4 114/3/4
f 109/3/4 111/3/4 115/3/4
f 111/4/4 112/4/4 115/4/4
f 115/4/4 112/4/4 116/4/4
f 112/3/4 113/3/4 117/3/4
f 113/1/4 114/1/4 118/1/4
f 117/3/4 113/3/4 118/3/4
f 114/1/4 108/1/4 119/1/4
f 118/1/4 114/1/4 119/1/4
f 119/1/4 108/1/4 120/1/4
f 116/4/4 112/4/4 121/4/4
f 115/1/4 116/1/4 121/1/4
f 112/3/4 117/3/4 122/3/4
f 121/4/4 112/4/4 122/4/4
f 117/1/4 118/1/4 123/1/4
f 118/1/4 119/1/4 123/1/4
f 119/3/4 120/3/4 124/3/4
f 123/1/4 119/1/4 124/1/4
f 117/1/4 123/1/4 125/1/4
f 123/3/4 124/3/4 125/3/4
f 124/3/4 120/3/4 126/3/4
f 125/3/4 124/3/4 126/3/4
f 122/3/4 117/3/4 127/3/4
f 117/1/4 125/1/4 127/1/4
f 125/1/4 126/1/4 127/1/4
f 121/3/4 122/3/4 127/3/4
f 127/1/4 126/1/4 128/1/4
f 126/3/4 120/3/4 129/3/4
f 128/1/4 126/1/4 129/1/4
f 129/3/4 120/3/4 130/3/4
f 115/1/4 121/1/4 131/1/4
f 109/3/4 115/3/4 131/3/4
f 127/3/4 128/3/4 132/3/4
f 131/1/4 121/1/4 132/1/4
f 121/3/4 127/3/4 132/3/4
f 129/1/4 130/1/4 133/1/4
f 132/3/4 128/3/4 133/3/4
f 128/1/4 129/1/4 133/1/4
f 133/1/4 130/1/4 134/1/4
f 107/1/4 109/1/4 135/1/4
f 109/3/4 131/3/4 135/3/4
f 133/3/4 134/3/4 135/3/4
f 132/3/4 133/3/4 135/3/4
f 131/3/4 132/3/4 135/3/4
f 134/1/4 130/1/4 136/1/4
f 135/3/4 134/3/4 136/3/4
f 107/1/4 135/1/4 137/1/4
f 135/1/4 136/1/4 137/1/4
f 136/1/4 130/1/4 138/1/4
f 137/1/4 136/1/4 138/1/4
f 141/1/5 140/1/5 139/1/5
f 142/1/5 140/1/5 141/1/5
f 143/1/5 141/1/5 139/1/5
f 143/3/5 142/3/5 141/3/5
f 144/1/5 140/1/5 142/1/5
f 144/3/5 142/3/5 143/3/5
f 145/1/5 143/1/5 139/1/5
f 145/1/5 144/1/5 143/1/5
f 146/1/5 140/1/5 144/1/5
f 146/1/5 144/1/5 145/1/5
f 147/1/6 148/1/6 151/1/6
f 148/3/6 149/3/6 152/3/6
f 151/1/6 148/1/6 152/1/6
f 152/3/6 149/3/6 153/3/6
f 153/3/6 149/3/6 154/3/6
f 149/1/6 150/1/6 155/1/6
f 154/3/6 149/3/6 155/3/6
f 155/1/6 150/1/6 156/1/6
f 147/1/6 151/1/6 157/1/6
f 151/3/6 152/3/6 158/3/6
f 157/1/6 151/1/6 158/1/6
f 152/3/6 153/3/6 158/3/6
f 158/3/6 153/3/6 159/3/6
f 153/1/6 154/1/6 160/1/6
f 159/3/6 153/3/6 160/3/6
f 155/3/6 156/3/6 161/3/6
f 160/1/6 154/1/6 161/1/6
f 154/3/6 155/3/6 161/3/6
f 161/3/6 156/3/6 162/3/6
f 156/1/6 150/1/6 163/1/6
f 162/3/6 156/3/6 163/3/6
f 163/1/6 150/1/6 164/1/6
f 147/1/6 157/1/6 165/1/6
f 158/3/6 159/3/6 166/3/6
f 165/1/6 157/1/6 166/1/6
f 157/3/6 158/3/6 166/3/6
f 166/3/6 159/3/6 167/3/6
f 159/1/6 160/1/6 168/1/6
f 167/3/6 159/3/6 168/3/6
f 160/2/6 161/2/6 169/2/6
f 168/1/6 160/1/6 169/1/6
f 161/1/6 162/1/6 170/1/6
f 169/2/6 161/2/6 170/2/6
f 163/3/6 164/3/6 171/3/6
f 170/1/6 162/1/6 171/1/6
f 162/3/6 163/3/6 171/3/6
f 171/3/6 164/3/6 172/3/6
f 164/1/6 150/1/6 173/1/6
f 172/3/6 164/3/6 173/3/6
f 173/1/6 150/1/6 174/1/6
f 166/3/6 167/3/6 175/3/6
f 165/3/6 166/3/6 175/3/6
f 167/1/6 168/1/6 176/1/6
f 175/3/6 167/3/6 176/3/6
f 168/2/6 169/2/6 177/2/6
f 176/1/6 168/1/6 177/1/6
f 169/2/6 170/2/6 177/2/6
f 170/2/6 171/2/6 177/2/6
f 171/1/6 172/1/6 178/1/6
f 177/2/6 171/2/6 178/2/6
f 172/3/6 173/3/6 179/3/6
f 178/1/6 172/1/6 179/1/6
f 173/3/6 174/3/6 179/3/6
f 179/3/6 174/3/6 180/3/6
f 175/1/6 176/1/6 181/1/6
f 165/3/6 175/3/6 181/3/6
f 176/2/6 177/2/6 182/2/6
f 181/1/6 176/1/6 182/1/6
f 177/2/6 178/2/6 182/2/6
f 178/2/6 179/2/6 182/2/6
f 182/2/6 179/2/6 183/2/6
f 183/2/6 179/2/6 184/2/6
f 179/1/6 180/1/6 185/1/6
f 184/2/6 179/2/6 185/2/6
f 180/3/6 174/3/6 186/3/6
f 185/1/6 180/1/6 186/1/6
f 165/3/6 181/3/6 187/3/6
f 181/3/6 182/3/6 187/3/6
f 187/3/6 182/3/6 188/3/6
f 182/1/6 183/1/6 189/1/6
f 188/3/6 182/3/6 189/3/6
f 183/2/6 184/2/6 190/2/6
f 189/1/6 183/1/6 190/1/6
f 190/2/6 184/2/6 191/2/6
f 191/2/6 184/2/6 192/2/6
f 184/1/6 185/1/6 193/1/6
f 192/2/6 184/2/6 193/2/6
f 185/3/6 186/3/6 194/3/6
f 193/1/6 185/1/6 194/1/6
f 186/3/6 174/3/6 195/3/6
f 194/3/6 186/3/6 195/3/6
f 195/3/6 174/3/6 196/3/6
f 188/3/6 189/3/6 197/3/6
f 187/1/6 188/1/6 197/1/6
f 189/3/6 190/3/6 197/3/6
f 197/3/6 190/3/6 198/3/6
f 190/1/6 191/1/6 199/1/6
f 198/3/6 190/3/6 199/3/6
f 191/2/6 192/2/6 200/2/6
f 199/1/6 191/1/6 200/1/6
f 192/1/6 193/1/6 201/1/6
f 200/2/6 192/2/6 201/2/6
f 193/3/6 194/3/6 202/3/6
f 201/1/6 193/1/6 202/1/6
f 194/3/6 195/3/6 202/3/6
f 202/3/6 195/3/6 203/3/6
f 195/1/6 196/1/6 204/1/6
f 203/3/6 195/3/6 204/3/6
f 198/3/6 199/3/6 205/3/6
f 199/3/6 200/3/6 205/3/6
f 197/1/6 198/1/6 205/1/6
f 205/3/6 200/3/6 206/3/6
f 200/1/6 201/1/6 207/1/6
f 206/3/6 200/3/6 207/3/6
f 202/3/6 203/3/6 208/3/6
f 207/1/6 201/1/6 208/1/6
f 201/3/6 202/3/6 208/3/6
f 208/3/6 203/3/6 209/3/6
f 203/1/6 204/1/6 210/1/6
f 209/3/6 203/3/6 210/3/6
f 205/1/6 206/1/6 211/1/6
f 187/1/6 197/1/6 211/1/6
f 197/1/6 205/1/6 211/1/6
f 208/3/6 209/3/6 212/3/6
f 211/1/6 206/1/6 212/1/6
f 206/3/6 207/3/6 212/3/6
f 207/3/6 208/3/6 212/3/6
f 209/1/6 210/1/6 213/1/6
f 212/3/6 209/3/6 213/3/6
f 204/1/6 196/1/6 214/1/6
f 213/1/6 210/1/6 214/1/6
f 210/1/6 204/1/6 214/1/6
