# MagicaVoxel @ Ephtracy

# group
o 

# material
mtllib RedStone.mtl
usemtl palette

# normals
vn -1 0 0
vn 1 0 0
vn 0 0 1
vn 0 0 -1
vn 0 -1 0
vn 0 1 0

# texcoords
vt 0.857422 0.5
vt 0.865234 0.5
vt 0.869141 0.5

# verts
v -0.5 0 0.5
v -0.5 0 0.3
v -0.5 0 0.2
v -0.5 0 0.1
v -0.5 0 0
v -0.5 0 -0.2
v -0.5 0 -0.4
v -0.5 0 -0.5
v -0.5 0.1 0.5
v -0.5 0.1 0.4
v -0.5 0.1 0.3
v -0.5 0.1 0.2
v -0.5 0.1 0.1
v -0.5 0.1 0
v -0.5 0.1 -0.1
v -0.5 0.1 -0.4
v -0.5 0.1 -0.5
v -0.5 0.2 0.4
v -0.5 0.2 0.3
v -0.5 0.2 0.1
v -0.5 0.2 -0.1
v -0.5 0.2 -0.2
v -0.5 0.3 0.3
v -0.5 0.3 0
v -0.5 0.3 -0.1
v -0.5 0.3 -0.3
v -0.5 0.3 -0.4
v -0.5 0.3 -0.5
v -0.5 0.4 0
v -0.5 0.4 -0.2
v -0.5 0.4 -0.3
v -0.5 0.4 -0.4
v -0.5 0.5 0.5
v -0.5 0.5 0.4
v -0.5 0.5 0.3
v -0.5 0.5 -0.2
v -0.5 0.5 -0.4
v -0.5 0.5 -0.5
v -0.5 0.6 0.5
v -0.5 0.6 0.4
v -0.5 0.6 0.3
v -0.5 0.6 0.2
v -0.5 0.6 -0.1
v -0.5 0.6 -0.2
v -0.5 0.6 -0.4
v -0.5 0.6 -0.5
v -0.5 0.7 0.4
v -0.5 0.7 0.3
v -0.5 0.7 0.2
v -0.5 0.7 0
v -0.5 0.7 -0.1
v -0.5 0.7 -0.2
v -0.5 0.7 -0.4
v -0.5 0.8 0.5
v -0.5 0.8 0.4
v -0.5 0.8 0.3
v -0.5 0.8 0
v -0.5 0.8 -0.4
v -0.5 0.9 0.5
v -0.5 0.9 0.3
v -0.5 0.9 0
v -0.5 0.9 -0.4
v -0.5 0.9 -0.5
v -0.5 1 0.5
v -0.5 1 -0.5
v 0.5 0 0.5
v 0.5 0 -0.1
v 0.5 0 -0.2
v 0.5 0 -0.3
v 0.5 0 -0.4
v 0.5 0 -0.5
v 0.5 0.1 0.5
v 0.5 0.1 0.4
v 0.5 0.1 0.2
v 0.5 0.1 0.1
v 0.5 0.1 -0.2
v 0.5 0.1 -0.3
v 0.5 0.1 -0.4
v 0.5 0.1 -0.5
v 0.5 0.2 0.5
v 0.5 0.2 0.4
v 0.5 0.2 0.3
v 0.5 0.2 0.2
v 0.5 0.2 0.1
v 0.5 0.2 -0.1
v 0.5 0.2 -0.2
v 0.5 0.2 -0.3
v 0.5 0.2 -0.4
v 0.5 0.3 0.5
v 0.5 0.3 0.4
v 0.5 0.3 0.3
v 0.5 0.3 0.1
v 0.5 0.3 0
v 0.5 0.3 -0.2
v 0.5 0.3 -0.5
v 0.5 0.4 0.5
v 0.5 0.4 0.4
v 0.5 0.4 0.2
v 0.5 0.4 0.1
v 0.5 0.4 0
v 0.5 0.4 -0.4
v 0.5 0.4 -0.5
v 0.5 0.5 0.4
v 0.5 0.5 0.3
v 0.5 0.5 0.2
v 0.5 0.5 0
v 0.5 0.5 -0.1
v 0.5 0.5 -0.3
v 0.5 0.5 -0.4
v 0.5 0.5 -0.5
v 0.5 0.6 0.5
v 0.5 0.6 0.3
v 0.5 0.6 0.2
v 0.5 0.6 0.1
v 0.5 0.6 0
v 0.5 0.6 -0.1
v 0.5 0.6 -0.2
v 0.5 0.6 -0.3
v 0.5 0.6 -0.4
v 0.5 0.6 -0.5
v 0.5 0.7 0.5
v 0.5 0.7 0.3
v 0.5 0.7 0.2
v 0.5 0.7 0.1
v 0.5 0.7 0
v 0.5 0.7 -0.1
v 0.5 0.7 -0.2
v 0.5 0.7 -0.4
v 0.5 0.7 -0.5
v 0.5 0.8 0.5
v 0.5 0.8 0.4
v 0.5 0.8 0.3
v 0.5 0.8 0.1
v 0.5 0.8 0
v 0.5 0.8 -0.1
v 0.5 0.8 -0.5
v 0.5 0.9 0.4
v 0.5 0.9 0
v 0.5 0.9 -0.2
v 0.5 0.9 -0.5
v 0.5 1 0.5
v 0.5 1 -0.2
v 0.5 1 -0.5
v -0.5 0 0.5
v -0.5 0.1 0.5
v -0.5 0.5 0.5
v -0.5 0.6 0.5
v -0.5 0.8 0.5
v -0.5 0.9 0.5
v -0.5 1 0.5
v -0.4 0 0.5
v -0.4 0.1 0.5
v -0.4 0.2 0.5
v -0.4 0.3 0.5
v -0.4 0.4 0.5
v -0.4 0.5 0.5
v -0.4 0.6 0.5
v -0.4 0.7 0.5
v -0.4 0.8 0.5
v -0.4 0.9 0.5
v -0.4 1 0.5
v -0.3 0 0.5
v -0.3 0.2 0.5
v -0.3 0.5 0.5
v -0.3 0.6 0.5
v -0.3 0.7 0.5
v -0.3 0.8 0.5
v -0.3 0.9 0.5
v -0.3 1 0.5
v -0.2 0.1 0.5
v -0.2 0.3 0.5
v -0.2 0.4 0.5
v -0.2 0.5 0.5
v -0.2 0.9 0.5
v -0.2 1 0.5
v -0.1 0.2 0.5
v -0.1 0.3 0.5
v -0.1 0.4 0.5
v -0.1 0.5 0.5
v -0.1 0.6 0.5
v -0.1 0.7 0.5
v -0.1 0.9 0.5
v -0.1 1 0.5
v 0 0.1 0.5
v 0 0.2 0.5
v 0 0.4 0.5
v 0 0.5 0.5
v 0 0.7 0.5
v 0 0.8 0.5
v 0 0.9 0.5
v 0 1 0.5
v 0.1 0.3 0.5
v 0.1 0.5 0.5
v 0.1 0.6 0.5
v 0.1 0.7 0.5
v 0.1 0.8 0.5
v 0.1 0.9 0.5
v 0.1 1 0.5
v 0.2 0 0.5
v 0.2 0.2 0.5
v 0.2 0.3 0.5
v 0.2 0.7 0.5
v 0.2 0.8 0.5
v 0.3 0.2 0.5
v 0.3 0.3 0.5
v 0.3 0.4 0.5
v 0.3 0.5 0.5
v 0.3 0.6 0.5
v 0.3 0.7 0.5
v 0.3 0.8 0.5
v 0.3 0.9 0.5
v 0.3 1 0.5
v 0.4 0 0.5
v 0.4 0.1 0.5
v 0.4 0.2 0.5
v 0.4 0.3 0.5
v 0.4 0.7 0.5
v 0.4 0.8 0.5
v 0.4 1 0.5
v 0.5 0 0.5
v 0.5 0.1 0.5
v 0.5 0.2 0.5
v 0.5 0.3 0.5
v 0.5 0.4 0.5
v 0.5 0.6 0.5
v 0.5 0.7 0.5
v 0.5 0.8 0.5
v 0.5 1 0.5
v -0.5 0 -0.5
v -0.5 0.1 -0.5
v -0.5 0.3 -0.5
v -0.5 0.5 -0.5
v -0.5 0.6 -0.5
v -0.5 0.9 -0.5
v -0.5 1 -0.5
v -0.4 0.1 -0.5
v -0.4 0.2 -0.5
v -0.4 0.6 -0.5
v -0.4 0.7 -0.5
v -0.3 0.5 -0.5
v -0.3 0.6 -0.5
v -0.3 0.7 -0.5
v -0.3 0.8 -0.5
v -0.3 0.9 -0.5
v -0.1 0 -0.5
v -0.1 0.1 -0.5
v -0.1 0.2 -0.5
v -0.1 0.3 -0.5
v -0.1 0.4 -0.5
v -0.1 0.5 -0.5
v -0.1 0.6 -0.5
v -0.1 0.7 -0.5
v -0.1 0.8 -0.5
v -0.1 1 -0.5
v 0 0.2 -0.5
v 0 0.3 -0.5
v 0 0.7 -0.5
v 0 0.8 -0.5
v 0 0.9 -0.5
v 0 1 -0.5
v 0.1 0 -0.5
v 0.1 0.1 -0.5
v 0.1 0.2 -0.5
v 0.1 0.3 -0.5
v 0.1 0.4 -0.5
v 0.1 0.5 -0.5
v 0.1 0.8 -0.5
v 0.1 0.9 -0.5
v 0.2 0.7 -0.5
v 0.2 0.8 -0.5
v 0.3 0.6 -0.5
v 0.3 0.7 -0.5
v 0.3 0.8 -0.5
v 0.4 0 -0.5
v 0.4 0.1 -0.5
v 0.4 0.2 -0.5
v 0.4 0.3 -0.5
v 0.4 0.4 -0.5
v 0.4 0.5 -0.5
v 0.4 0.6 -0.5
v 0.4 0.7 -0.5
v 0.4 0.8 -0.5
v 0.4 0.9 -0.5
v 0.4 1 -0.5
v 0.5 0 -0.5
v 0.5 0.1 -0.5
v 0.5 0.3 -0.5
v 0.5 0.4 -0.5
v 0.5 0.5 -0.5
v 0.5 0.6 -0.5
v 0.5 0.7 -0.5
v 0.5 0.8 -0.5
v 0.5 0.9 -0.5
v 0.5 1 -0.5
v -0.5 0 0.5
v -0.4 0 0.5
v -0.3 0 0.5
v 0.2 0 0.5
v 0.4 0 0.5
v 0.5 0 0.5
v -0.3 0 0.4
v 0 0 0.4
v 0.2 0 0.4
v 0.4 0 0.4
v -0.5 0 0.3
v -0.4 0 0.3
v -0.3 0 0.3
v 0 0 0.3
v 0.2 0 0.3
v 0.3 0 0.3
v 0.4 0 0.3
v -0.5 0 0.2
v -0.4 0 0.2
v -0.3 0 0.2
v -0.2 0 0.2
v 0.2 0 0.2
v 0.3 0 0.2
v 0.4 0 0.2
v -0.5 0 0.1
v -0.4 0 0.1
v -0.2 0 0.1
v 0 0 0.1
v 0.2 0 0.1
v -0.5 0 0
v -0.4 0 0
v -0.2 0 0
v 0 0 0
v 0.1 0 0
v -0.4 0 -0.1
v -0.3 0 -0.1
v -0.2 0 -0.1
v 0.1 0 -0.1
v 0.2 0 -0.1
v 0.5 0 -0.1
v -0.5 0 -0.2
v -0.4 0 -0.2
v -0.3 0 -0.2
v 0 0 -0.2
v 0.2 0 -0.2
v 0.3 0 -0.2
v 0.4 0 -0.2
v 0.5 0 -0.2
v -0.4 0 -0.3
v -0.1 0 -0.3
v 0 0 -0.3
v 0.1 0 -0.3
v 0.2 0 -0.3
v 0.3 0 -0.3
v 0.4 0 -0.3
v 0.5 0 -0.3
v -0.5 0 -0.4
v -0.1 0 -0.4
v 0 0 -0.4
v 0.1 0 -0.4
v 0.2 0 -0.4
v 0.3 0 -0.4
v 0.4 0 -0.4
v 0.5 0 -0.4
v -0.5 0 -0.5
v -0.1 0 -0.5
v 0.1 0 -0.5
v 0.4 0 -0.5
v 0.5 0 -0.5
v -0.5 1 0.5
v -0.4 1 0.5
v -0.3 1 0.5
v -0.2 1 0.5
v -0.1 1 0.5
v 0 1 0.5
v 0.1 1 0.5
v 0.3 1 0.5
v 0.4 1 0.5
v 0.5 1 0.5
v -0.1 1 0.4
v 0 1 0.4
v 0.1 1 0.4
v 0.2 1 0.4
v 0.3 1 0.4
v -0.3 1 0.3
v -0.2 1 0.3
v -0.1 1 0.3
v 0.2 1 0.3
v 0.3 1 0.3
v 0.4 1 0.3
v 0.1 1 0.2
v 0.2 1 0.2
v -0.4 1 0.1
v -0.3 1 0.1
v -0.2 1 0.1
v -0.1 1 0.1
v 0.1 1 0.1
v 0.3 1 0.1
v 0.4 1 0.1
v -0.4 1 0
v -0.3 1 0
v -0.2 1 0
v -0.3 1 -0.1
v -0.2 1 -0.1
v -0.1 1 -0.1
v 0 1 -0.1
v 0.1 1 -0.1
v 0.2 1 -0.1
v 0.3 1 -0.1
v 0.4 1 -0.1
v -0.4 1 -0.2
v -0.3 1 -0.2
v -0.2 1 -0.2
v -0.1 1 -0.2
v 0.1 1 -0.2
v 0.2 1 -0.2
v 0.3 1 -0.2
v 0.4 1 -0.2
v 0.5 1 -0.2
v -0.4 1 -0.3
v -0.3 1 -0.3
v -0.2 1 -0.3
v -0.1 1 -0.3
v 0 1 -0.3
v 0.1 1 -0.3
v 0.2 1 -0.3
v 0.3 1 -0.3
v 0.4 1 -0.3
v -0.4 1 -0.4
v -0.3 1 -0.4
v -0.2 1 -0.4
v 0.2 1 -0.4
v 0.3 1 -0.4
v 0.4 1 -0.4
v -0.5 1 -0.5
v -0.1 1 -0.5
v 0 1 -0.5
v 0.4 1 -0.5
v 0.5 1 -0.5

# faces
f 9/1/1 2/1/1 1/1/1
f 10/1/1 2/1/1 9/1/1
f 11/3/1 3/3/1 2/3/1
f 11/1/1 2/1/1 10/1/1
f 12/2/1 4/2/1 3/2/1
f 12/3/1 3/3/1 11/3/1
f 13/1/1 5/1/1 4/1/1
f 13/2/1 4/2/1 12/2/1
f 14/3/1 6/3/1 5/3/1
f 14/1/1 5/1/1 13/1/1
f 15/3/1 6/3/1 14/3/1
f 16/1/1 8/1/1 7/1/1
f 16/2/1 7/2/1 6/2/1
f 17/1/1 8/1/1 16/1/1
f 18/2/1 10/2/1 9/2/1
f 18/3/1 11/3/1 10/3/1
f 18/3/1 12/3/1 11/3/1
f 18/3/1 13/3/1 12/3/1
f 19/3/1 13/3/1 18/3/1
f 20/2/1 14/2/1 13/2/1
f 20/3/1 13/3/1 19/3/1
f 20/2/1 15/2/1 14/2/1
f 21/3/1 6/3/1 15/3/1
f 21/2/1 15/2/1 20/2/1
f 22/2/1 16/2/1 6/2/1
f 22/3/1 6/3/1 21/3/1
f 23/1/1 20/1/1 19/1/1
f 23/1/1 21/1/1 20/1/1
f 23/2/1 19/2/1 18/2/1
f 24/1/1 21/1/1 23/1/1
f 25/2/1 22/2/1 21/2/1
f 25/1/1 21/1/1 24/1/1
f 26/2/1 16/2/1 22/2/1
f 26/2/1 22/2/1 25/2/1
f 27/3/1 17/3/1 16/3/1
f 27/2/1 16/2/1 26/2/1
f 28/3/1 17/3/1 27/3/1
f 29/1/1 25/1/1 24/1/1
f 29/1/1 26/1/1 25/1/1
f 29/2/1 24/2/1 23/2/1
f 30/1/1 26/1/1 29/1/1
f 31/2/1 28/2/1 27/2/1
f 31/1/1 26/1/1 30/1/1
f 31/2/1 27/2/1 26/2/1
f 32/2/1 28/2/1 31/2/1
f 33/2/1 30/2/1 29/2/1
f 33/2/1 29/2/1 23/2/1
f 33/2/1 18/2/1 9/2/1
f 33/2/1 23/2/1 18/2/1
f 34/2/1 30/2/1 33/2/1
f 35/2/1 30/2/1 34/2/1
f 36/1/1 32/1/1 31/1/1
f 36/2/1 30/2/1 35/2/1
f 36/1/1 31/1/1 30/1/1
f 37/2/1 28/2/1 32/2/1
f 37/1/1 32/1/1 36/1/1
f 38/2/1 28/2/1 37/2/1
f 39/1/1 34/1/1 33/1/1
f 40/2/1 35/2/1 34/2/1
f 40/1/1 34/1/1 39/1/1
f 41/3/1 36/3/1 35/3/1
f 41/2/1 35/2/1 40/2/1
f 42/3/1 36/3/1 41/3/1
f 43/3/1 36/3/1 42/3/1
f 44/2/1 37/2/1 36/2/1
f 44/3/1 36/3/1 43/3/1
f 45/3/1 38/3/1 37/3/1
f 45/2/1 37/2/1 44/2/1
f 46/3/1 38/3/1 45/3/1
f 47/2/1 40/2/1 39/2/1
f 47/3/1 41/3/1 40/3/1
f 47/3/1 42/3/1 41/3/1
f 48/3/1 42/3/1 47/3/1
f 49/2/1 43/2/1 42/2/1
f 49/3/1 42/3/1 48/3/1
f 50/2/1 43/2/1 49/2/1
f 51/1/1 44/1/1 43/1/1
f 51/2/1 43/2/1 50/2/1
f 52/3/1 45/3/1 44/3/1
f 52/1/1 44/1/1 51/1/1
f 53/1/1 46/1/1 45/1/1
f 53/3/1 45/3/1 52/3/1
f 54/2/1 47/2/1 39/2/1
f 55/1/1 48/1/1 47/1/1
f 55/2/1 47/2/1 54/2/1
f 56/3/1 50/3/1 49/3/1
f 56/1/1 48/1/1 55/1/1
f 56/3/1 49/3/1 48/3/1
f 57/2/1 52/2/1 51/2/1
f 57/3/1 50/3/1 56/3/1
f 57/2/1 51/2/1 50/2/1
f 57/2/1 53/2/1 52/2/1
f 58/1/1 46/1/1 53/1/1
f 58/2/1 53/2/1 57/2/1
f 59/3/1 55/3/1 54/3/1
f 59/3/1 56/3/1 55/3/1
f 60/1/1 57/1/1 56/1/1
f 60/3/1 56/3/1 59/3/1
f 61/3/1 58/3/1 57/3/1
f 61/1/1 57/1/1 60/1/1
f 62/1/1 46/1/1 58/1/1
f 62/3/1 58/3/1 61/3/1
f 63/1/1 46/1/1 62/1/1
f 64/2/1 61/2/1 60/2/1
f 64/2/1 60/2/1 59/2/1
f 64/2/1 63/2/1 62/2/1
f 64/2/1 62/2/1 61/2/1
f 65/2/1 63/2/1 64/2/1
f 66/2/2 67/2/2 72/2/2
f 72/2/2 67/2/2 73/2/2
f 73/2/2 67/2/2 74/2/2
f 74/2/2 67/2/2 75/2/2
f 67/3/2 68/3/2 76/3/2
f 68/1/2 69/1/2 76/1/2
f 69/3/2 70/3/2 77/3/2
f 76/1/2 69/1/2 77/1/2
f 70/2/2 71/2/2 78/2/2
f 77/3/2 70/3/2 78/3/2
f 78/2/2 71/2/2 79/2/2
f 72/1/2 73/1/2 80/1/2
f 73/3/2 74/3/2 81/3/2
f 80/1/2 73/1/2 81/1/2
f 81/3/2 74/3/2 82/3/2
f 74/1/2 75/1/2 83/1/2
f 82/3/2 74/3/2 83/3/2
f 75/2/2 67/2/2 84/2/2
f 83/1/2 75/1/2 84/1/2
f 76/3/2 77/3/2 85/3/2
f 84/2/2 67/2/2 85/2/2
f 67/3/2 76/3/2 85/3/2
f 85/3/2 77/3/2 86/3/2
f 77/1/2 78/1/2 87/1/2
f 86/3/2 77/3/2 87/3/2
f 78/3/2 79/3/2 88/3/2
f 87/1/2 78/1/2 88/1/2
f 80/2/2 81/2/2 89/2/2
f 81/1/2 82/1/2 90/1/2
f 89/2/2 81/2/2 90/2/2
f 83/2/2 84/2/2 91/2/2
f 90/1/2 82/1/2 91/1/2
f 82/2/2 83/2/2 91/2/2
f 85/2/2 86/2/2 91/2/2
f 84/2/2 85/2/2 91/2/2
f 91/2/2 86/2/2 92/2/2
f 92/2/2 86/2/2 93/2/2
f 87/3/2 88/3/2 94/3/2
f 93/2/2 86/2/2 94/2/2
f 86/3/2 87/3/2 94/3/2
f 88/3/2 79/3/2 95/3/2
f 94/3/2 88/3/2 95/3/2
f 89/3/2 90/3/2 96/3/2
f 91/3/2 92/3/2 96/3/2
f 90/3/2 91/3/2 96/3/2
f 96/3/2 92/3/2 97/3/2
f 97/3/2 92/3/2 98/3/2
f 92/1/2 93/1/2 99/1/2
f 98/3/2 92/3/2 99/3/2
f 93/2/2 94/2/2 100/2/2
f 99/1/2 93/1/2 100/1/2
f 94/2/2 95/2/2 100/2/2
f 100/2/2 95/2/2 101/2/2
f 101/2/2 95/2/2 102/2/2
f 97/1/2 98/1/2 103/1/2
f 96/2/2 97/2/2 103/2/2
f 103/1/2 98/1/2 104/1/2
f 98/2/2 99/2/2 105/2/2
f 104/1/2 98/1/2 105/1/2
f 99/2/2 100/2/2 105/2/2
f 100/3/2 101/3/2 106/3/2
f 105/2/2 100/2/2 106/2/2
f 106/3/2 101/3/2 107/3/2
f 107/3/2 101/3/2 108/3/2
f 101/1/2 102/1/2 109/1/2
f 108/3/2 101/3/2 109/3/2
f 109/1/2 102/1/2 110/1/2
f 103/2/2 104/2/2 111/2/2
f 96/2/2 103/2/2 111/2/2
f 104/3/2 105/3/2 112/3/2
f 111/2/2 104/2/2 112/2/2
f 105/3/2 106/3/2 112/3/2
f 112/3/2 106/3/2 113/3/2
f 113/3/2 106/3/2 114/3/2
f 106/2/2 107/2/2 115/2/2
f 114/3/2 106/3/2 115/3/2
f 107/1/2 108/1/2 116/1/2
f 115/2/2 107/2/2 116/2/2
f 116/1/2 108/1/2 117/1/2
f 109/2/2 110/2/2 118/2/2
f 117/1/2 108/1/2 118/1/2
f 108/2/2 109/2/2 118/2/2
f 118/2/2 110/2/2 119/2/2
f 119/2/2 110/2/2 120/2/2
f 111/3/2 112/3/2 121/3/2
f 112/3/2 113/3/2 121/3/2
f 121/3/2 113/3/2 122/3/2
f 113/2/2 114/2/2 123/2/2
f 122/3/2 113/3/2 123/3/2
f 114/3/2 115/3/2 124/3/2
f 123/2/2 114/2/2 124/2/2
f 116/1/2 117/1/2 125/1/2
f 124/3/2 115/3/2 125/3/2
f 115/1/2 116/1/2 125/1/2
f 125/1/2 117/1/2 126/1/2
f 117/2/2 118/2/2 127/2/2
f 126/1/2 117/1/2 127/1/2
f 118/2/2 119/2/2 127/2/2
f 119/1/2 120/1/2 128/1/2
f 127/2/2 119/2/2 128/2/2
f 128/1/2 120/1/2 129/1/2
f 121/1/2 122/1/2 130/1/2
f 130/1/2 122/1/2 131/1/2
f 122/3/2 123/3/2 132/3/2
f 131/1/2 122/1/2 132/1/2
f 123/3/2 124/3/2 132/3/2
f 125/2/2 126/2/2 133/2/2
f 132/3/2 124/3/2 133/3/2
f 124/2/2 125/2/2 133/2/2
f 133/2/2 126/2/2 134/2/2
f 126/3/2 127/3/2 135/3/2
f 134/2/2 126/2/2 135/2/2
f 128/3/2 129/3/2 135/3/2
f 127/3/2 128/3/2 135/3/2
f 135/3/2 129/3/2 136/3/2
f 130/2/2 131/2/2 137/2/2
f 133/3/2 134/3/2 137/3/2
f 131/3/2 132/3/2 137/3/2
f 132/3/2 133/3/2 137/3/2
f 135/2/2 136/2/2 138/2/2
f 137/3/2 134/3/2 138/3/2
f 134/2/2 135/2/2 138/2/2
f 138/2/2 136/2/2 139/2/2
f 139/2/2 136/2/2 140/2/2
f 130/2/2 137/2/2 141/2/2
f 137/2/2 138/2/2 141/2/2
f 138/2/2 139/2/2 141/2/2
f 139/1/2 140/1/2 142/1/2
f 141/2/2 139/2/2 142/2/2
f 142/1/2 140/1/2 143/1/2
f 151/1/3 145/1/3 144/1/3
f 152/2/3 146/2/3 145/2/3
f 152/1/3 145/1/3 151/1/3
f 153/2/3 146/2/3 152/2/3
f 154/2/3 146/2/3 153/2/3
f 155/2/3 146/2/3 154/2/3
f 156/1/3 147/1/3 146/1/3
f 156/2/3 146/2/3 155/2/3
f 157/2/3 148/2/3 147/2/3
f 157/1/3 147/1/3 156/1/3
f 158/2/3 148/2/3 157/2/3
f 159/3/3 149/3/3 148/3/3
f 159/2/3 148/2/3 158/2/3
f 160/2/3 150/2/3 149/2/3
f 160/3/3 149/3/3 159/3/3
f 161/2/3 150/2/3 160/2/3
f 162/2/3 152/2/3 151/2/3
f 162/2/3 153/2/3 152/2/3
f 163/3/3 154/3/3 153/3/3
f 163/2/3 153/2/3 162/2/3
f 164/1/3 156/1/3 155/1/3
f 164/2/3 158/2/3 157/2/3
f 164/2/3 157/2/3 156/2/3
f 165/2/3 158/2/3 164/2/3
f 166/3/3 159/3/3 158/3/3
f 166/2/3 158/2/3 165/2/3
f 166/3/3 160/3/3 159/3/3
f 167/3/3 160/3/3 166/3/3
f 168/1/3 161/1/3 160/1/3
f 168/3/3 160/3/3 167/3/3
f 169/1/3 161/1/3 168/1/3
f 170/3/3 163/3/3 162/3/3
f 171/2/3 155/2/3 154/2/3
f 171/3/3 163/3/3 170/3/3
f 171/3/3 154/3/3 163/3/3
f 172/1/3 164/1/3 155/1/3
f 172/2/3 155/2/3 171/2/3
f 173/3/3 165/3/3 164/3/3
f 173/1/3 164/1/3 172/1/3
f 174/2/3 169/2/3 168/2/3
f 174/2/3 168/2/3 167/2/3
f 175/2/3 169/2/3 174/2/3
f 176/2/3 172/2/3 171/2/3
f 176/2/3 171/2/3 170/2/3
f 177/2/3 172/2/3 176/2/3
f 178/3/3 173/3/3 172/3/3
f 178/2/3 172/2/3 177/2/3
f 179/3/3 165/3/3 173/3/3
f 179/3/3 173/3/3 178/3/3
f 180/1/3 166/1/3 165/1/3
f 180/3/3 165/3/3 179/3/3
f 181/3/3 167/3/3 166/3/3
f 181/1/3 166/1/3 180/1/3
f 182/3/3 175/3/3 174/3/3
f 182/2/3 174/2/3 167/2/3
f 183/3/3 175/3/3 182/3/3
f 184/3/3 170/3/3 162/3/3
f 184/2/3 176/2/3 170/2/3
f 185/3/3 177/3/3 176/3/3
f 185/2/3 176/2/3 184/2/3
f 186/2/3 178/2/3 177/2/3
f 186/1/3 179/1/3 178/1/3
f 187/2/3 180/2/3 179/2/3
f 187/1/3 179/1/3 186/1/3
f 187/2/3 181/2/3 180/2/3
f 188/3/3 167/3/3 181/3/3
f 188/2/3 181/2/3 187/2/3
f 189/2/3 182/2/3 167/2/3
f 189/3/3 167/3/3 188/3/3
f 189/2/3 183/2/3 182/2/3
f 190/2/3 183/2/3 189/2/3
f 191/2/3 183/2/3 190/2/3
f 192/3/3 177/3/3 185/3/3
f 192/2/3 186/2/3 177/2/3
f 192/2/3 187/2/3 186/2/3
f 192/3/3 185/3/3 184/3/3
f 192/2/3 189/2/3 188/2/3
f 192/2/3 188/2/3 187/2/3
f 193/2/3 189/2/3 192/2/3
f 194/2/3 189/2/3 193/2/3
f 195/2/3 189/2/3 194/2/3
f 196/3/3 190/3/3 189/3/3
f 196/2/3 189/2/3 195/2/3
f 197/1/3 191/1/3 190/1/3
f 197/3/3 190/3/3 196/3/3
f 198/1/3 191/1/3 197/1/3
f 199/3/3 184/3/3 162/3/3
f 199/3/3 192/3/3 184/3/3
f 199/3/3 193/3/3 192/3/3
f 200/3/3 193/3/3 199/3/3
f 201/3/3 193/3/3 200/3/3
f 202/1/3 196/1/3 195/1/3
f 202/3/3 195/3/3 194/3/3
f 203/3/3 197/3/3 196/3/3
f 203/1/3 196/1/3 202/1/3
f 204/2/3 201/2/3 200/2/3
f 204/1/3 200/1/3 199/1/3
f 205/3/3 193/3/3 201/3/3
f 205/2/3 201/2/3 204/2/3
f 206/3/3 193/3/3 205/3/3
f 207/1/3 194/1/3 193/1/3
f 207/3/3 193/3/3 206/3/3
f 208/3/3 202/3/3 194/3/3
f 208/1/3 194/1/3 207/1/3
f 208/3/3 203/3/3 202/3/3
f 209/3/3 203/3/3 208/3/3
f 210/3/3 197/3/3 203/3/3
f 210/3/3 203/3/3 209/3/3
f 211/2/3 198/2/3 197/2/3
f 211/3/3 197/3/3 210/3/3
f 212/2/3 198/2/3 211/2/3
f 213/1/3 204/1/3 199/1/3
f 213/1/3 205/1/3 204/1/3
f 214/1/3 205/1/3 213/1/3
f 215/1/3 205/1/3 214/1/3
f 216/3/3 206/3/3 205/3/3
f 216/1/3 205/1/3 215/1/3
f 217/3/3 209/3/3 208/3/3
f 217/2/3 210/2/3 209/2/3
f 218/1/3 212/1/3 211/1/3
f 218/2/3 210/2/3 217/2/3
f 218/1/3 211/1/3 210/1/3
f 219/1/3 212/1/3 218/1/3
f 220/2/3 214/2/3 213/2/3
f 221/1/3 215/1/3 214/1/3
f 221/2/3 214/2/3 220/2/3
f 222/2/3 216/2/3 215/2/3
f 222/1/3 215/1/3 221/1/3
f 223/3/3 206/3/3 216/3/3
f 223/2/3 216/2/3 222/2/3
f 224/2/3 207/2/3 206/2/3
f 224/3/3 206/3/3 223/3/3
f 224/2/3 208/2/3 207/2/3
f 225/3/3 217/3/3 208/3/3
f 225/2/3 208/2/3 224/2/3
f 226/1/3 218/1/3 217/1/3
f 226/3/3 217/3/3 225/3/3
f 227/2/3 219/2/3 218/2/3
f 227/1/3 218/1/3 226/1/3
f 228/2/3 219/2/3 227/2/3
f 229/1/4 230/1/4 236/1/4
f 230/3/4 231/3/4 236/3/4
f 236/3/4 231/3/4 237/3/4
f 233/1/4 234/1/4 238/1/4
f 232/3/4 233/3/4 238/3/4
f 238/1/4 234/1/4 239/1/4
f 231/2/4 232/2/4 240/2/4
f 232/3/4 238/3/4 240/3/4
f 238/2/4 239/2/4 241/2/4
f 240/3/4 238/3/4 241/3/4
f 239/1/4 234/1/4 242/1/4
f 241/2/4 239/2/4 242/2/4
f 242/1/4 234/1/4 243/1/4
f 234/2/4 235/2/4 244/2/4
f 243/1/4 234/1/4 244/1/4
f 229/1/4 236/1/4 245/1/4
f 236/2/4 237/2/4 246/2/4
f 245/1/4 236/1/4 246/1/4
f 237/3/4 231/3/4 247/3/4
f 246/2/4 237/2/4 247/2/4
f 240/2/4 241/2/4 248/2/4
f 247/3/4 231/3/4 248/3/4
f 231/2/4 240/2/4 248/2/4
f 248/2/4 241/2/4 249/2/4
f 249/2/4 241/2/4 250/2/4
f 241/1/4 242/1/4 251/1/4
f 250/2/4 241/2/4 251/2/4
f 242/3/4 243/3/4 252/3/4
f 251/1/4 242/1/4 252/1/4
f 243/2/4 244/2/4 253/2/4
f 252/3/4 243/3/4 253/3/4
f 244/2/4 235/2/4 254/2/4
f 253/2/4 244/2/4 254/2/4
f 246/3/4 247/3/4 255/3/4
f 247/2/4 248/2/4 255/2/4
f 248/3/4 249/3/4 256/3/4
f 255/2/4 248/2/4 256/2/4
f 252/2/4 253/2/4 257/2/4
f 251/2/4 252/2/4 257/2/4
f 253/1/4 254/1/4 258/1/4
f 257/2/4 253/2/4 258/2/4
f 258/1/4 254/1/4 259/1/4
f 259/1/4 254/1/4 260/1/4
f 245/2/4 246/2/4 261/2/4
f 246/3/4 255/3/4 262/3/4
f 261/2/4 246/2/4 262/2/4
f 255/1/4 256/1/4 263/1/4
f 262/3/4 255/3/4 263/3/4
f 256/3/4 249/3/4 264/3/4
f 263/1/4 256/1/4 264/1/4
f 249/1/4 250/1/4 265/1/4
f 264/3/4 249/3/4 265/3/4
f 250/3/4 251/3/4 266/3/4
f 265/1/4 250/1/4 266/1/4
f 257/1/4 258/1/4 267/1/4
f 258/1/4 259/1/4 267/1/4
f 259/2/4 260/2/4 268/2/4
f 267/1/4 259/1/4 268/1/4
f 251/2/4 257/2/4 269/2/4
f 257/1/4 267/1/4 269/1/4
f 267/2/4 268/2/4 270/2/4
f 269/1/4 267/1/4 270/1/4
f 266/3/4 251/3/4 271/3/4
f 251/2/4 269/2/4 271/2/4
f 269/3/4 270/3/4 272/3/4
f 271/2/4 269/2/4 272/2/4
f 270/2/4 268/2/4 273/2/4
f 272/3/4 270/3/4 273/3/4
f 261/3/4 262/3/4 274/3/4
f 262/2/4 263/2/4 275/2/4
f 274/3/4 262/3/4 275/3/4
f 263/1/4 264/1/4 276/1/4
f 275/2/4 263/2/4 276/2/4
f 264/2/4 265/2/4 277/2/4
f 276/1/4 264/1/4 277/1/4
f 265/2/4 266/2/4 277/2/4
f 277/2/4 266/2/4 278/2/4
f 271/3/4 272/3/4 279/3/4
f 278/2/4 266/2/4 279/2/4
f 266/3/4 271/3/4 279/3/4
f 279/3/4 272/3/4 280/3/4
f 272/2/4 273/2/4 281/2/4
f 280/3/4 272/3/4 281/3/4
f 273/2/4 268/2/4 282/2/4
f 281/2/4 273/2/4 282/2/4
f 268/2/4 260/2/4 283/2/4
f 282/2/4 268/2/4 283/2/4
f 283/2/4 260/2/4 284/2/4
f 274/2/4 275/2/4 285/2/4
f 275/3/4 276/3/4 286/3/4
f 285/2/4 275/2/4 286/2/4
f 276/3/4 277/3/4 286/3/4
f 277/2/4 278/2/4 287/2/4
f 286/3/4 277/3/4 287/3/4
f 278/1/4 279/1/4 288/1/4
f 287/2/4 278/2/4 288/2/4
f 279/2/4 280/2/4 289/2/4
f 288/1/4 279/1/4 289/1/4
f 280/1/4 281/1/4 290/1/4
f 289/2/4 280/2/4 290/2/4
f 281/3/4 282/3/4 291/3/4
f 290/1/4 281/1/4 291/1/4
f 282/2/4 283/2/4 292/2/4
f 291/3/4 282/3/4 292/3/4
f 283/1/4 284/1/4 293/1/4
f 292/2/4 283/2/4 293/2/4
f 293/1/4 284/1/4 294/1/4
f 301/2/5 297/2/5 296/2/5
f 301/3/5 298/3/5 297/3/5
f 302/3/5 298/3/5 301/3/5
f 303/1/5 299/1/5 298/1/5
f 303/3/5 298/3/5 302/3/5
f 304/2/5 300/2/5 299/2/5
f 304/1/5 299/1/5 303/1/5
f 305/1/5 296/1/5 295/1/5
f 306/2/5 302/2/5 301/2/5
f 306/1/5 296/1/5 305/1/5
f 306/2/5 301/2/5 296/2/5
f 307/2/5 302/2/5 306/2/5
f 308/1/5 303/1/5 302/1/5
f 308/2/5 302/2/5 307/2/5
f 309/2/5 304/2/5 303/2/5
f 309/1/5 303/1/5 308/1/5
f 310/2/5 304/2/5 309/2/5
f 311/2/5 300/2/5 304/2/5
f 311/2/5 304/2/5 310/2/5
f 312/3/5 306/3/5 305/3/5
f 313/2/5 307/2/5 306/2/5
f 313/3/5 306/3/5 312/3/5
f 314/3/5 310/3/5 309/3/5
f 314/2/5 307/2/5 313/2/5
f 314/3/5 308/3/5 307/3/5
f 314/3/5 309/3/5 308/3/5
f 315/3/5 310/3/5 314/3/5
f 316/3/5 310/3/5 315/3/5
f 317/1/5 311/1/5 310/1/5
f 317/3/5 310/3/5 316/3/5
f 318/2/5 300/2/5 311/2/5
f 318/1/5 311/1/5 317/1/5
f 319/2/5 313/2/5 312/2/5
f 319/2/5 314/2/5 313/2/5
f 319/2/5 315/2/5 314/2/5
f 320/2/5 315/2/5 319/2/5
f 321/3/5 316/3/5 315/3/5
f 321/2/5 315/2/5 320/2/5
f 322/3/5 316/3/5 321/3/5
f 323/2/5 317/2/5 316/2/5
f 323/3/5 316/3/5 322/3/5
f 323/2/5 318/2/5 317/2/5
f 324/1/5 320/1/5 319/1/5
f 325/3/5 322/3/5 321/3/5
f 325/1/5 320/1/5 324/1/5
f 325/3/5 321/3/5 320/3/5
f 326/3/5 322/3/5 325/3/5
f 327/2/5 323/2/5 322/2/5
f 327/3/5 322/3/5 326/3/5
f 328/2/5 323/2/5 327/2/5
f 329/2/5 326/2/5 325/2/5
f 329/3/5 325/3/5 324/3/5
f 330/2/5 326/2/5 329/2/5
f 331/1/5 328/1/5 327/1/5
f 331/2/5 326/2/5 330/2/5
f 331/1/5 327/1/5 326/1/5
f 332/2/5 323/2/5 328/2/5
f 332/1/5 328/1/5 331/1/5
f 333/2/5 318/2/5 323/2/5
f 333/2/5 323/2/5 332/2/5
f 334/2/5 300/2/5 318/2/5
f 334/2/5 318/2/5 333/2/5
f 335/3/5 329/3/5 324/3/5
f 336/1/5 330/1/5 329/1/5
f 336/3/5 329/3/5 335/3/5
f 337/2/5 333/2/5 332/2/5
f 337/1/5 330/1/5 336/1/5
f 337/2/5 332/2/5 331/2/5
f 337/2/5 331/2/5 330/2/5
f 338/2/5 333/2/5 337/2/5
f 339/3/5 334/3/5 333/3/5
f 339/2/5 333/2/5 338/2/5
f 340/3/5 334/3/5 339/3/5
f 341/3/5 334/3/5 340/3/5
f 342/3/5 334/3/5 341/3/5
f 343/2/5 336/2/5 335/2/5
f 343/3/5 338/3/5 337/3/5
f 343/3/5 337/3/5 336/3/5
f 344/3/5 338/3/5 343/3/5
f 345/2/5 339/2/5 338/2/5
f 345/3/5 338/3/5 344/3/5
f 346/2/5 339/2/5 345/2/5
f 347/1/5 340/1/5 339/1/5
f 347/2/5 339/2/5 346/2/5
f 348/2/5 341/2/5 340/2/5
f 348/1/5 340/1/5 347/1/5
f 349/1/5 342/1/5 341/1/5
f 349/2/5 341/2/5 348/2/5
f 350/1/5 342/1/5 349/1/5
f 351/2/5 344/2/5 343/2/5
f 351/2/5 343/2/5 335/2/5
f 352/1/5 345/1/5 344/1/5
f 352/2/5 344/2/5 351/2/5
f 353/3/5 346/3/5 345/3/5
f 353/1/5 345/1/5 352/1/5
f 354/1/5 347/1/5 346/1/5
f 354/3/5 346/3/5 353/3/5
f 355/2/5 348/2/5 347/2/5
f 355/1/5 347/1/5 354/1/5
f 356/3/5 350/3/5 349/3/5
f 356/2/5 348/2/5 355/2/5
f 356/3/5 349/3/5 348/3/5
f 357/3/5 350/3/5 356/3/5
f 358/3/5 350/3/5 357/3/5
f 359/1/5 352/1/5 351/1/5
f 360/2/5 354/2/5 353/2/5
f 360/1/5 352/1/5 359/1/5
f 360/2/5 353/2/5 352/2/5
f 361/3/5 355/3/5 354/3/5
f 361/2/5 354/2/5 360/2/5
f 361/3/5 356/3/5 355/3/5
f 361/3/5 357/3/5 356/3/5
f 362/2/5 358/2/5 357/2/5
f 362/3/5 357/3/5 361/3/5
f 363/2/5 358/2/5 362/2/5
f 367/3/6 368/3/6 374/3/6
f 368/2/6 369/2/6 374/2/6
f 369/1/6 370/1/6 375/1/6
f 374/2/6 369/2/6 375/2/6
f 370/2/6 371/2/6 376/2/6
f 375/1/6 370/1/6 376/1/6
f 376/2/6 371/2/6 377/2/6
f 371/1/6 372/1/6 378/1/6
f 377/2/6 371/2/6 378/2/6
f 365/1/6 366/1/6 379/1/6
f 366/2/6 367/2/6 379/2/6
f 367/3/6 374/3/6 380/3/6
f 379/2/6 367/2/6 380/2/6
f 374/3/6 375/3/6 380/3/6
f 375/3/6 376/3/6 380/3/6
f 380/3/6 376/3/6 381/3/6
f 377/3/6 378/3/6 382/3/6
f 376/2/6 377/2/6 382/2/6
f 378/1/6 372/1/6 383/1/6
f 382/3/6 378/3/6 383/3/6
f 372/2/6 373/2/6 384/2/6
f 383/1/6 372/1/6 384/1/6
f 376/2/6 382/2/6 385/2/6
f 381/3/6 376/3/6 385/3/6
f 382/2/6 383/2/6 385/2/6
f 385/2/6 383/2/6 386/2/6
f 364/2/6 365/2/6 387/2/6
f 365/1/6 379/1/6 387/1/6
f 379/3/6 380/3/6 388/3/6
f 387/1/6 379/1/6 388/1/6
f 380/1/6 381/1/6 389/1/6
f 388/3/6 380/3/6 389/3/6
f 385/3/6 386/3/6 390/3/6
f 389/1/6 381/1/6 390/1/6
f 381/3/6 385/3/6 390/3/6
f 390/3/6 386/3/6 391/3/6
f 386/2/6 383/2/6 392/2/6
f 383/3/6 384/3/6 392/3/6
f 384/2/6 373/2/6 393/2/6
f 392/3/6 384/3/6 393/3/6
f 364/2/6 387/2/6 394/2/6
f 387/2/6 388/2/6 394/2/6
f 388/3/6 389/3/6 395/3/6
f 394/2/6 388/2/6 395/2/6
f 390/2/6 391/2/6 396/2/6
f 395/3/6 389/3/6 396/3/6
f 389/2/6 390/2/6 396/2/6
f 394/3/6 395/3/6 397/3/6
f 395/2/6 396/2/6 397/2/6
f 396/2/6 391/2/6 398/2/6
f 397/2/6 396/2/6 398/2/6
f 398/2/6 391/2/6 399/2/6
f 399/2/6 391/2/6 400/2/6
f 391/3/6 386/3/6 401/3/6
f 400/2/6 391/2/6 401/2/6
f 386/2/6 392/2/6 402/2/6
f 401/3/6 386/3/6 402/3/6
f 392/1/6 393/1/6 403/1/6
f 402/2/6 392/2/6 403/2/6
f 393/2/6 373/2/6 404/2/6
f 403/1/6 393/1/6 404/1/6
f 394/3/6 397/3/6 405/3/6
f 364/2/6 394/2/6 405/2/6
f 397/1/6 398/1/6 406/1/6
f 405/3/6 397/3/6 406/3/6
f 398/2/6 399/2/6 407/2/6
f 406/1/6 398/1/6 407/1/6
f 399/1/6 400/1/6 408/1/6
f 407/2/6 399/2/6 408/2/6
f 400/3/6 401/3/6 409/3/6
f 401/1/6 402/1/6 409/1/6
f 402/2/6 403/2/6 410/2/6
f 409/1/6 402/1/6 410/1/6
f 403/3/6 404/3/6 411/3/6
f 410/2/6 403/2/6 411/2/6
f 404/2/6 373/2/6 412/2/6
f 411/3/6 404/3/6 412/3/6
f 412/2/6 373/2/6 413/2/6
f 364/2/6 405/2/6 414/2/6
f 405/2/6 406/2/6 414/2/6
f 406/3/6 407/3/6 415/3/6
f 414/2/6 406/2/6 415/2/6
f 407/1/6 408/1/6 416/1/6
f 415/3/6 407/3/6 416/3/6
f 408/1/6 400/1/6 417/1/6
f 416/1/6 408/1/6 417/1/6
f 400/3/6 409/3/6 418/3/6
f 417/1/6 400/1/6 418/1/6
f 410/2/6 411/2/6 419/2/6
f 418/3/6 409/3/6 419/3/6
f 409/2/6 410/2/6 419/2/6
f 411/2/6 412/2/6 419/2/6
f 419/2/6 412/2/6 420/2/6
f 420/2/6 412/2/6 421/2/6
f 412/1/6 413/1/6 422/1/6
f 421/2/6 412/2/6 422/2/6
f 364/2/6 414/2/6 423/2/6
f 414/1/6 415/1/6 423/1/6
f 415/3/6 416/3/6 424/3/6
f 423/1/6 415/1/6 424/1/6
f 416/2/6 417/2/6 425/2/6
f 424/3/6 416/3/6 425/3/6
f 420/1/6 421/1/6 426/1/6
f 418/2/6 419/2/6 426/2/6
f 419/2/6 420/2/6 426/2/6
f 421/3/6 422/3/6 427/3/6
f 426/1/6 421/1/6 427/1/6
f 422/1/6 413/1/6 428/1/6
f 427/3/6 422/3/6 428/3/6
f 364/2/6 423/2/6 429/2/6
f 423/2/6 424/2/6 429/2/6
f 424/2/6 425/2/6 429/2/6
f 417/1/6 418/1/6 430/1/6
f 429/2/6 425/2/6 430/2/6
f 425/2/6 417/2/6 430/2/6
f 426/2/6 427/2/6 431/2/6
f 430/1/6 418/1/6 431/1/6
f 427/2/6 428/2/6 431/2/6
f 418/2/6 426/2/6 431/2/6
f 428/1/6 413/1/6 432/1/6
f 431/2/6 428/2/6 432/2/6
f 432/1/6 413/1/6 433/1/6
