# MagicaVoxel @ Ephtracy

# group
o 

# material
mtllib Stabilizer.mtl
usemtl palette

# normals
vn -1 0 0
vn 1 0 0
vn 0 0 1
vn 0 0 -1
vn 0 -1 0
vn 0 1 0

# texcoords
vt 0.525391 0.5
vt 0.544922 0.5
vt 0.548828 0.5
vt 0.857422 0.5
vt 0.865234 0.5
vt 0.869141 0.5
vt 0.974609 0.5
vt 0.990234 0.5

# verts
v -0.5 0 0.5
v -0.5 0 -0.5
v -0.5 0.1 0.4
v -0.5 0.1 -0.4
v -0.5 0.4 0.3
v -0.5 0.4 -0.3
v -0.5 0.5 0.2
v -0.5 0.5 0.1
v -0.5 0.5 0
v -0.5 0.5 -0.1
v -0.5 0.5 -0.2
v -0.5 0.6 0.4
v -0.5 0.6 0.3
v -0.5 0.6 0.2
v -0.5 0.6 0.1
v -0.5 0.6 0
v -0.5 0.6 -0.1
v -0.5 0.6 -0.2
v -0.5 0.6 -0.3
v -0.5 0.6 -0.4
v -0.5 0.7 0.4
v -0.5 0.7 0.3
v -0.5 0.7 0.2
v -0.5 0.7 0.1
v -0.5 0.7 0
v -0.5 0.7 -0.1
v -0.5 0.7 -0.2
v -0.5 0.7 -0.3
v -0.5 0.7 -0.4
v -0.5 0.8 0.3
v -0.5 0.8 -0.3
v -0.5 0.9 0.4
v -0.5 0.9 -0.4
v -0.5 1 0.5
v -0.5 1 -0.5
v -0.1 0.9 0.1
v -0.1 0.9 -0.1
v -0.1 1 0.1
v -0.1 1 -0.1
v 0.3 0.9 0.3
v 0.3 0.9 0.2
v 0.3 0.9 0.1
v 0.3 0.9 -0.1
v 0.3 0.9 -0.2
v 0.3 0.9 -0.3
v 0.3 1 0.3
v 0.3 1 0.2
v 0.3 1 0.1
v 0.3 1 -0.1
v 0.3 1 -0.2
v 0.3 1 -0.3
v -0.3 0.9 0.3
v -0.3 0.9 0.2
v -0.3 0.9 0
v -0.3 0.9 -0.1
v -0.3 0.9 -0.2
v -0.3 0.9 -0.3
v -0.3 1 0.3
v -0.3 1 0.2
v -0.3 1 0
v -0.3 1 -0.1
v -0.3 1 -0.2
v -0.3 1 -0.3
v 0.1 0.9 0.1
v 0.1 0.9 -0.1
v 0.1 1 0.1
v 0.1 1 -0.1
v 0.5 0 0.5
v 0.5 0 -0.5
v 0.5 0.1 0.4
v 0.5 0.1 -0.4
v 0.5 0.4 0.3
v 0.5 0.4 -0.3
v 0.5 0.5 0.2
v 0.5 0.5 0.1
v 0.5 0.5 0
v 0.5 0.5 -0.1
v 0.5 0.5 -0.2
v 0.5 0.6 0.4
v 0.5 0.6 0.3
v 0.5 0.6 0.2
v 0.5 0.6 0.1
v 0.5 0.6 0
v 0.5 0.6 -0.1
v 0.5 0.6 -0.2
v 0.5 0.6 -0.3
v 0.5 0.6 -0.4
v 0.5 0.7 0.4
v 0.5 0.7 0.3
v 0.5 0.7 0.2
v 0.5 0.7 0.1
v 0.5 0.7 0
v 0.5 0.7 -0.1
v 0.5 0.7 -0.2
v 0.5 0.7 -0.3
v 0.5 0.7 -0.4
v 0.5 0.8 0.3
v 0.5 0.8 -0.3
v 0.5 0.9 0.4
v 0.5 0.9 -0.4
v 0.5 1 0.5
v 0.5 1 -0.5
v -0.5 0 0.5
v -0.5 1 0.5
v -0.4 0.1 0.5
v -0.4 0.6 0.5
v -0.4 0.7 0.5
v -0.4 0.9 0.5
v -0.3 0.4 0.5
v -0.3 0.6 0.5
v -0.3 0.7 0.5
v -0.3 0.8 0.5
v -0.2 0.5 0.5
v -0.2 0.6 0.5
v -0.2 0.7 0.5
v 0 0.6 0.5
v 0 0.7 0.5
v 0.1 0.6 0.5
v 0.1 0.7 0.5
v 0.2 0.5 0.5
v 0.2 0.6 0.5
v 0.2 0.7 0.5
v 0.3 0.4 0.5
v 0.3 0.6 0.5
v 0.3 0.7 0.5
v 0.3 0.8 0.5
v 0.4 0.1 0.5
v 0.4 0.6 0.5
v 0.4 0.7 0.5
v 0.4 0.9 0.5
v 0.5 0 0.5
v 0.5 1 0.5
v -0.1 0.9 0.1
v -0.1 1 0.1
v 0 0.9 0.1
v 0 1 0.1
v 0.1 0.9 0.1
v 0.1 1 0.1
v -0.3 0.9 -0.3
v -0.3 1 -0.3
v -0.2 0.9 -0.3
v -0.2 1 -0.3
v -0.1 0.9 -0.3
v -0.1 1 -0.3
v 0 0.9 -0.3
v 0 1 -0.3
v 0.1 0.9 -0.3
v 0.1 1 -0.3
v 0.2 0.9 -0.3
v 0.2 1 -0.3
v 0.3 0.9 -0.3
v 0.3 1 -0.3
v -0.3 0.9 0.3
v -0.3 1 0.3
v -0.2 0.9 0.3
v -0.2 1 0.3
v 0 0.9 0.3
v 0 1 0.3
v 0.1 0.9 0.3
v 0.1 1 0.3
v 0.2 0.9 0.3
v 0.2 1 0.3
v 0.3 0.9 0.3
v 0.3 1 0.3
v -0.1 0.9 -0.1
v -0.1 1 -0.1
v 0 0.9 -0.1
v 0 1 -0.1
v 0.1 0.9 -0.1
v 0.1 1 -0.1
v -0.5 0 -0.5
v -0.5 1 -0.5
v -0.4 0.1 -0.5
v -0.4 0.6 -0.5
v -0.4 0.7 -0.5
v -0.4 0.9 -0.5
v -0.3 0.4 -0.5
v -0.3 0.6 -0.5
v -0.3 0.7 -0.5
v -0.3 0.8 -0.5
v -0.2 0.5 -0.5
v -0.2 0.6 -0.5
v -0.2 0.7 -0.5
v -0.1 0.5 -0.5
v -0.1 0.6 -0.5
v -0.1 0.7 -0.5
v 0 0.6 -0.5
v 0 0.7 -0.5
v 0.1 0.6 -0.5
v 0.1 0.7 -0.5
v 0.2 0.5 -0.5
v 0.2 0.6 -0.5
v 0.2 0.7 -0.5
v 0.3 0.4 -0.5
v 0.3 0.6 -0.5
v 0.3 0.7 -0.5
v 0.3 0.8 -0.5
v 0.4 0.1 -0.5
v 0.4 0.6 -0.5
v 0.4 0.7 -0.5
v 0.4 0.9 -0.5
v 0.5 0 -0.5
v 0.5 1 -0.5
v -0.5 0 0.5
v 0.5 0 0.5
v -0.4 0 0.4
v 0.4 0 0.4
v -0.4 0 -0.4
v 0.4 0 -0.4
v -0.5 0 -0.5
v 0.5 0 -0.5
v -0.3 0.9 0.3
v -0.2 0.9 0.3
v 0 0.9 0.3
v 0.1 0.9 0.3
v 0.2 0.9 0.3
v 0.3 0.9 0.3
v -0.3 0.9 0.2
v -0.2 0.9 0.2
v -0.1 0.9 0.2
v 0 0.9 0.2
v 0.2 0.9 0.2
v 0.3 0.9 0.2
v -0.1 0.9 0.1
v 0 0.9 0.1
v 0.1 0.9 0.1
v 0.3 0.9 0.1
v -0.3 0.9 0
v -0.3 0.9 -0.1
v -0.2 0.9 -0.1
v -0.1 0.9 -0.1
v 0 0.9 -0.1
v 0.1 0.9 -0.1
v 0.2 0.9 -0.1
v 0.3 0.9 -0.1
v -0.3 0.9 -0.2
v -0.2 0.9 -0.2
v -0.1 0.9 -0.2
v 0.1 0.9 -0.2
v 0.2 0.9 -0.2
v 0.3 0.9 -0.2
v -0.3 0.9 -0.3
v -0.2 0.9 -0.3
v -0.1 0.9 -0.3
v 0 0.9 -0.3
v 0.1 0.9 -0.3
v 0.2 0.9 -0.3
v 0.3 0.9 -0.3
v -0.5 1 0.5
v 0.5 1 0.5
v -0.4 1 0.4
v -0.3 1 0.4
v -0.2 1 0.4
v 0 1 0.4
v 0.1 1 0.4
v 0.2 1 0.4
v 0.3 1 0.4
v 0.4 1 0.4
v -0.4 1 0.3
v -0.3 1 0.3
v -0.2 1 0.3
v 0 1 0.3
v 0.1 1 0.3
v 0.2 1 0.3
v 0.3 1 0.3
v -0.4 1 0.2
v -0.3 1 0.2
v 0.3 1 0.2
v 0.4 1 0.2
v -0.1 1 0.1
v 0 1 0.1
v 0.1 1 0.1
v 0.3 1 0.1
v 0.4 1 0.1
v -0.4 1 0
v -0.3 1 0
v -0.4 1 -0.1
v -0.3 1 -0.1
v -0.1 1 -0.1
v 0 1 -0.1
v 0.1 1 -0.1
v 0.3 1 -0.1
v 0.4 1 -0.1
v -0.4 1 -0.2
v -0.3 1 -0.2
v 0.3 1 -0.2
v 0.4 1 -0.2
v -0.4 1 -0.3
v -0.3 1 -0.3
v -0.2 1 -0.3
v -0.1 1 -0.3
v 0 1 -0.3
v 0.1 1 -0.3
v 0.2 1 -0.3
v 0.3 1 -0.3
v -0.4 1 -0.4
v -0.3 1 -0.4
v -0.2 1 -0.4
v -0.1 1 -0.4
v 0 1 -0.4
v 0.1 1 -0.4
v 0.2 1 -0.4
v 0.3 1 -0.4
v 0.4 1 -0.4
v -0.5 1 -0.5
v 0.5 1 -0.5

# faces
f 3/8/1 2/8/1 1/8/1
f 4/8/1 2/8/1 3/8/1
f 5/7/1 4/7/1 3/7/1
f 6/7/1 4/7/1 5/7/1
f 7/8/1 6/8/1 5/8/1
f 8/8/1 6/8/1 7/8/1
f 9/8/1 6/8/1 8/8/1
f 10/8/1 6/8/1 9/8/1
f 11/8/1 6/8/1 10/8/1
f 12/8/1 3/8/1 1/8/1
f 12/7/1 5/7/1 3/7/1
f 13/8/1 7/8/1 5/8/1
f 13/7/1 5/7/1 12/7/1
f 14/5/1 8/5/1 7/5/1
f 14/8/1 7/8/1 13/8/1
f 15/4/1 9/4/1 8/4/1
f 15/5/1 8/5/1 14/5/1
f 16/6/1 10/6/1 9/6/1
f 16/4/1 9/4/1 15/4/1
f 17/4/1 11/4/1 10/4/1
f 17/6/1 10/6/1 16/6/1
f 18/8/1 6/8/1 11/8/1
f 18/4/1 11/4/1 17/4/1
f 19/7/1 4/7/1 6/7/1
f 19/8/1 6/8/1 18/8/1
f 20/8/1 2/8/1 4/8/1
f 20/7/1 4/7/1 19/7/1
f 21/8/1 12/8/1 1/8/1
f 21/8/1 13/8/1 12/8/1
f 21/8/1 14/8/1 13/8/1
f 22/8/1 14/8/1 21/8/1
f 23/6/1 15/6/1 14/6/1
f 23/8/1 14/8/1 22/8/1
f 24/5/1 16/5/1 15/5/1
f 24/6/1 15/6/1 23/6/1
f 25/4/1 17/4/1 16/4/1
f 25/5/1 16/5/1 24/5/1
f 26/6/1 18/6/1 17/6/1
f 26/4/1 17/4/1 25/4/1
f 27/8/1 19/8/1 18/8/1
f 27/6/1 18/6/1 26/6/1
f 27/8/1 20/8/1 19/8/1
f 28/8/1 20/8/1 27/8/1
f 29/8/1 2/8/1 20/8/1
f 29/8/1 20/8/1 28/8/1
f 30/8/1 24/8/1 23/8/1
f 30/8/1 26/8/1 25/8/1
f 30/8/1 23/8/1 22/8/1
f 30/8/1 27/8/1 26/8/1
f 30/7/1 22/7/1 21/7/1
f 30/8/1 25/8/1 24/8/1
f 30/8/1 28/8/1 27/8/1
f 31/7/1 29/7/1 28/7/1
f 31/8/1 28/8/1 30/8/1
f 32/7/1 30/7/1 21/7/1
f 32/8/1 21/8/1 1/8/1
f 32/7/1 31/7/1 30/7/1
f 33/8/1 2/8/1 29/8/1
f 33/7/1 31/7/1 32/7/1
f 33/7/1 29/7/1 31/7/1
f 34/8/1 32/8/1 1/8/1
f 34/8/1 33/8/1 32/8/1
f 35/8/1 2/8/1 33/8/1
f 35/8/1 33/8/1 34/8/1
f 38/3/1 37/3/1 36/3/1
f 39/3/1 37/3/1 38/3/1
f 46/5/1 41/5/1 40/5/1
f 47/6/1 42/6/1 41/6/1
f 47/5/1 41/5/1 46/5/1
f 48/5/1 43/5/1 42/5/1
f 48/6/1 42/6/1 47/6/1
f 49/4/1 44/4/1 43/4/1
f 49/5/1 43/5/1 48/5/1
f 50/5/1 45/5/1 44/5/1
f 50/4/1 44/4/1 49/4/1
f 51/5/1 45/5/1 50/5/1
f 52/6/2 53/6/2 58/6/2
f 53/5/2 54/5/2 59/5/2
f 58/6/2 53/6/2 59/6/2
f 54/6/2 55/6/2 60/6/2
f 59/5/2 54/5/2 60/5/2
f 55/5/2 56/5/2 61/5/2
f 60/6/2 55/6/2 61/6/2
f 56/6/2 57/6/2 62/6/2
f 61/5/2 56/5/2 62/5/2
f 62/6/2 57/6/2 63/6/2
f 64/2/2 65/2/2 66/2/2
f 66/2/2 65/2/2 67/2/2
f 68/8/2 69/8/2 70/8/2
f 70/8/2 69/8/2 71/8/2
f 70/7/2 71/7/2 72/7/2
f 72/7/2 71/7/2 73/7/2
f 72/8/2 73/8/2 74/8/2
f 74/8/2 73/8/2 75/8/2
f 75/8/2 73/8/2 76/8/2
f 76/8/2 73/8/2 77/8/2
f 77/8/2 73/8/2 78/8/2
f 68/8/2 70/8/2 79/8/2
f 70/7/2 72/7/2 79/7/2
f 72/8/2 74/8/2 80/8/2
f 79/7/2 72/7/2 80/7/2
f 74/4/2 75/4/2 81/4/2
f 80/8/2 74/8/2 81/8/2
f 75/6/2 76/6/2 82/6/2
f 81/4/2 75/4/2 82/4/2
f 76/5/2 77/5/2 83/5/2
f 82/6/2 76/6/2 83/6/2
f 77/4/2 78/4/2 84/4/2
f 83/5/2 77/5/2 84/5/2
f 78/8/2 73/8/2 85/8/2
f 84/4/2 78/4/2 85/4/2
f 73/7/2 71/7/2 86/7/2
f 85/8/2 73/8/2 86/8/2
f 71/8/2 69/8/2 87/8/2
f 86/7/2 71/7/2 87/7/2
f 68/8/2 79/8/2 88/8/2
f 79/8/2 80/8/2 88/8/2
f 80/8/2 81/8/2 88/8/2
f 88/8/2 81/8/2 89/8/2
f 81/6/2 82/6/2 90/6/2
f 89/8/2 81/8/2 90/8/2
f 82/5/2 83/5/2 91/5/2
f 90/6/2 82/6/2 91/6/2
f 83/4/2 84/4/2 92/4/2
f 91/5/2 83/5/2 92/5/2
f 84/6/2 85/6/2 93/6/2
f 92/4/2 84/4/2 93/4/2
f 85/8/2 86/8/2 94/8/2
f 93/6/2 85/6/2 94/6/2
f 86/8/2 87/8/2 94/8/2
f 94/8/2 87/8/2 95/8/2
f 87/8/2 69/8/2 96/8/2
f 95/8/2 87/8/2 96/8/2
f 90/8/2 91/8/2 97/8/2
f 92/8/2 93/8/2 97/8/2
f 89/8/2 90/8/2 97/8/2
f 93/8/2 94/8/2 97/8/2
f 88/7/2 89/7/2 97/7/2
f 91/8/2 92/8/2 97/8/2
f 94/8/2 95/8/2 97/8/2
f 95/7/2 96/7/2 98/7/2
f 97/8/2 95/8/2 98/8/2
f 88/7/2 97/7/2 99/7/2
f 68/8/2 88/8/2 99/8/2
f 97/7/2 98/7/2 99/7/2
f 96/8/2 69/8/2 100/8/2
f 99/7/2 98/7/2 100/7/2
f 98/7/2 96/7/2 100/7/2
f 68/8/2 99/8/2 101/8/2
f 99/8/2 100/8/2 101/8/2
f 100/8/2 69/8/2 102/8/2
f 101/8/2 100/8/2 102/8/2
f 105/8/3 104/8/3 103/8/3
f 106/8/3 104/8/3 105/8/3
f 107/8/3 104/8/3 106/8/3
f 108/8/3 104/8/3 107/8/3
f 109/7/3 106/7/3 105/7/3
f 110/8/3 107/8/3 106/8/3
f 110/7/3 106/7/3 109/7/3
f 111/7/3 108/7/3 107/7/3
f 111/8/3 107/8/3 110/8/3
f 112/7/3 108/7/3 111/7/3
f 113/8/3 110/8/3 109/8/3
f 113/8/3 111/8/3 110/8/3
f 113/8/3 112/8/3 111/8/3
f 114/8/3 112/8/3 113/8/3
f 115/8/3 112/8/3 114/8/3
f 116/3/3 114/3/3 113/3/3
f 116/2/3 115/2/3 114/2/3
f 117/8/3 112/8/3 115/8/3
f 117/2/3 115/2/3 116/2/3
f 118/3/3 116/3/3 113/3/3
f 118/1/3 117/1/3 116/1/3
f 119/8/3 112/8/3 117/8/3
f 119/1/3 117/1/3 118/1/3
f 120/8/3 113/8/3 109/8/3
f 120/3/3 118/3/3 113/3/3
f 121/2/3 119/2/3 118/2/3
f 121/3/3 118/3/3 120/3/3
f 122/8/3 112/8/3 119/8/3
f 122/2/3 119/2/3 121/2/3
f 123/7/3 109/7/3 105/7/3
f 123/8/3 121/8/3 120/8/3
f 123/8/3 122/8/3 121/8/3
f 123/8/3 120/8/3 109/8/3
f 124/8/3 122/8/3 123/8/3
f 125/8/3 112/8/3 122/8/3
f 125/8/3 122/8/3 124/8/3
f 126/7/3 108/7/3 112/7/3
f 126/8/3 112/8/3 125/8/3
f 127/8/3 105/8/3 103/8/3
f 127/7/3 124/7/3 123/7/3
f 127/7/3 123/7/3 105/7/3
f 128/8/3 125/8/3 124/8/3
f 128/7/3 124/7/3 127/7/3
f 129/7/3 126/7/3 125/7/3
f 129/8/3 125/8/3 128/8/3
f 130/7/3 108/7/3 126/7/3
f 130/7/3 126/7/3 129/7/3
f 130/8/3 104/8/3 108/8/3
f 131/8/3 129/8/3 128/8/3
f 131/8/3 127/8/3 103/8/3
f 131/8/3 130/8/3 129/8/3
f 131/8/3 128/8/3 127/8/3
f 132/8/3 104/8/3 130/8/3
f 132/8/3 130/8/3 131/8/3
f 135/3/3 134/3/3 133/3/3
f 136/3/3 134/3/3 135/3/3
f 137/2/3 136/2/3 135/2/3
f 138/2/3 136/2/3 137/2/3
f 141/4/3 140/4/3 139/4/3
f 142/4/3 140/4/3 141/4/3
f 143/5/3 142/5/3 141/5/3
f 144/5/3 142/5/3 143/5/3
f 145/6/3 144/6/3 143/6/3
f 146/6/3 144/6/3 145/6/3
f 147/5/3 146/5/3 145/5/3
f 148/5/3 146/5/3 147/5/3
f 149/4/3 148/4/3 147/4/3
f 150/4/3 148/4/3 149/4/3
f 151/6/3 150/6/3 149/6/3
f 152/6/3 150/6/3 151/6/3
f 153/4/4 154/4/4 155/4/4
f 155/4/4 154/4/4 156/4/4
f 155/5/4 156/5/4 157/5/4
f 157/5/4 156/5/4 158/5/4
f 157/4/4 158/4/4 159/4/4
f 159/4/4 158/4/4 160/4/4
f 159/5/4 160/5/4 161/5/4
f 161/5/4 160/5/4 162/5/4
f 161/4/4 162/4/4 163/4/4
f 163/4/4 162/4/4 164/4/4
f 165/3/4 166/3/4 167/3/4
f 167/3/4 166/3/4 168/3/4
f 167/2/4 168/2/4 169/2/4
f 169/2/4 168/2/4 170/2/4
f 171/8/4 172/8/4 173/8/4
f 173/8/4 172/8/4 174/8/4
f 174/8/4 172/8/4 175/8/4
f 175/8/4 172/8/4 176/8/4
f 173/7/4 174/7/4 177/7/4
f 174/8/4 175/8/4 178/8/4
f 177/7/4 174/7/4 178/7/4
f 175/7/4 176/7/4 179/7/4
f 178/8/4 175/8/4 179/8/4
f 179/7/4 176/7/4 180/7/4
f 177/8/4 178/8/4 181/8/4
f 178/8/4 179/8/4 181/8/4
f 179/8/4 180/8/4 181/8/4
f 181/8/4 180/8/4 182/8/4
f 182/8/4 180/8/4 183/8/4
f 177/8/4 181/8/4 184/8/4
f 181/3/4 182/3/4 184/3/4
f 182/1/4 183/1/4 185/1/4
f 184/3/4 182/3/4 185/3/4
f 183/8/4 180/8/4 186/8/4
f 185/1/4 183/1/4 186/1/4
f 184/2/4 185/2/4 187/2/4
f 185/2/4 186/2/4 187/2/4
f 186/8/4 180/8/4 188/8/4
f 187/2/4 186/2/4 188/2/4
f 184/2/4 187/2/4 189/2/4
f 187/1/4 188/1/4 189/1/4
f 188/8/4 180/8/4 190/8/4
f 189/1/4 188/1/4 190/1/4
f 184/2/4 189/2/4 191/2/4
f 177/8/4 184/8/4 191/8/4
f 189/3/4 190/3/4 192/3/4
f 191/2/4 189/2/4 192/2/4
f 190/8/4 180/8/4 193/8/4
f 192/3/4 190/3/4 193/3/4
f 173/7/4 177/7/4 194/7/4
f 191/8/4 192/8/4 194/8/4
f 192/8/4 193/8/4 194/8/4
f 177/8/4 191/8/4 194/8/4
f 194/8/4 193/8/4 195/8/4
f 193/8/4 180/8/4 196/8/4
f 195/8/4 193/8/4 196/8/4
f 180/7/4 176/7/4 197/7/4
f 196/8/4 180/8/4 197/8/4
f 171/8/4 173/8/4 198/8/4
f 194/7/4 195/7/4 198/7/4
f 173/7/4 194/7/4 198/7/4
f 195/8/4 196/8/4 199/8/4
f 198/7/4 195/7/4 199/7/4
f 196/7/4 197/7/4 200/7/4
f 199/8/4 196/8/4 200/8/4
f 197/7/4 176/7/4 201/7/4
f 200/7/4 197/7/4 201/7/4
f 176/8/4 172/8/4 201/8/4
f 199/8/4 200/8/4 202/8/4
f 171/8/4 198/8/4 202/8/4
f 200/8/4 201/8/4 202/8/4
f 198/8/4 199/8/4 202/8/4
f 201/8/4 172/8/4 203/8/4
f 202/8/4 201/8/4 203/8/4
f 206/8/5 205/8/5 204/8/5
f 207/8/5 205/8/5 206/8/5
f 208/8/5 206/8/5 204/8/5
f 208/7/5 207/7/5 206/7/5
f 209/8/5 205/8/5 207/8/5
f 209/7/5 207/7/5 208/7/5
f 210/8/5 208/8/5 204/8/5
f 210/8/5 209/8/5 208/8/5
f 211/8/5 205/8/5 209/8/5
f 211/8/5 209/8/5 210/8/5
f 212/7/6 213/7/6 218/7/6
f 216/7/6 217/7/6 218/7/6
f 215/7/6 216/7/6 218/7/6
f 214/7/6 215/7/6 218/7/6
f 213/7/6 214/7/6 218/7/6
f 218/7/6 217/7/6 219/7/6
f 219/7/6 217/7/6 220/7/6
f 220/7/6 217/7/6 221/7/6
f 221/7/6 217/7/6 222/7/6
f 222/7/6 217/7/6 223/7/6
f 219/5/6 220/5/6 224/5/6
f 220/6/6 221/6/6 224/6/6
f 221/5/6 222/5/6 225/5/6
f 224/6/6 221/6/6 225/6/6
f 225/5/6 222/5/6 226/5/6
f 222/7/6 223/7/6 227/7/6
f 218/7/6 219/7/6 228/7/6
f 228/7/6 219/7/6 229/7/6
f 219/5/6 224/5/6 230/5/6
f 229/7/6 219/7/6 230/7/6
f 230/5/6 224/5/6 231/5/6
f 226/5/6 222/5/6 233/5/6
f 222/7/6 227/7/6 234/7/6
f 233/5/6 222/5/6 234/5/6
f 234/7/6 227/7/6 235/7/6
f 229/7/6 230/7/6 236/7/6
f 230/6/6 231/6/6 237/6/6
f 236/7/6 230/7/6 237/7/6
f 231/5/6 232/5/6 238/5/6
f 237/6/6 231/6/6 238/6/6
f 232/5/6 233/5/6 238/5/6
f 233/6/6 234/6/6 239/6/6
f 238/5/6 233/5/6 239/5/6
f 234/7/6 235/7/6 240/7/6
f 239/6/6 234/6/6 240/6/6
f 240/7/6 235/7/6 241/7/6
f 236/7/6 237/7/6 242/7/6
f 238/7/6 239/7/6 242/7/6
f 240/7/6 241/7/6 242/7/6
f 239/7/6 240/7/6 242/7/6
f 237/7/6 238/7/6 242/7/6
f 242/7/6 241/7/6 243/7/6
f 243/7/6 241/7/6 244/7/6
f 244/7/6 241/7/6 245/7/6
f 245/7/6 241/7/6 246/7/6
f 246/7/6 241/7/6 247/7/6
f 247/7/6 241/7/6 248/7/6
f 249/8/6 250/8/6 251/8/6
f 251/8/6 250/8/6 252/8/6
f 252/8/6 250/8/6 253/8/6
f 253/8/6 250/8/6 254/8/6
f 254/8/6 250/8/6 255/8/6
f 255/8/6 250/8/6 256/8/6
f 256/8/6 250/8/6 257/8/6
f 257/8/6 250/8/6 258/8/6
f 249/8/6 251/8/6 259/8/6
f 251/5/6 252/5/6 259/5/6
f 252/4/6 253/4/6 260/4/6
f 259/5/6 252/5/6 260/5/6
f 253/5/6 254/5/6 261/5/6
f 260/4/6 253/4/6 261/4/6
f 254/4/6 255/4/6 262/4/6
f 261/5/6 254/5/6 262/5/6
f 255/5/6 256/5/6 263/5/6
f 262/4/6 255/4/6 263/4/6
f 256/4/6 257/4/6 264/4/6
f 263/5/6 256/5/6 264/5/6
f 257/5/6 258/5/6 265/5/6
f 264/4/6 257/4/6 265/4/6
f 249/8/6 259/8/6 266/8/6
f 259/6/6 260/6/6 266/6/6
f 266/6/6 260/6/6 267/6/6
f 265/5/6 258/5/6 268/5/6
f 258/8/6 250/8/6 269/8/6
f 268/5/6 258/5/6 269/5/6
f 268/6/6 269/6/6 273/6/6
f 269/8/6 250/8/6 274/8/6
f 273/6/6 269/6/6 274/6/6
f 266/5/6 267/5/6 275/5/6
f 249/8/6 266/8/6 275/8/6
f 275/5/6 267/5/6 276/5/6
f 249/8/6 275/8/6 277/8/6
f 275/6/6 276/6/6 277/6/6
f 277/6/6 276/6/6 278/6/6
f 270/3/6 271/3/6 279/3/6
f 271/2/6 272/2/6 280/2/6
f 279/3/6 271/3/6 280/3/6
f 280/2/6 272/2/6 281/2/6
f 273/5/6 274/5/6 282/5/6
f 274/8/6 250/8/6 283/8/6
f 282/5/6 274/5/6 283/5/6
f 277/5/6 278/5/6 284/5/6
f 249/8/6 277/8/6 284/8/6
f 284/5/6 278/5/6 285/5/6
f 282/4/6 283/4/6 286/4/6
f 283/8/6 250/8/6 287/8/6
f 286/4/6 283/4/6 287/4/6
f 284/6/6 285/6/6 288/6/6
f 249/8/6 284/8/6 288/8/6
f 288/6/6 285/6/6 289/6/6
f 286/5/6 287/5/6 295/5/6
f 249/8/6 288/8/6 296/8/6
f 288/5/6 289/5/6 296/5/6
f 289/4/6 290/4/6 297/4/6
f 296/5/6 289/5/6 297/5/6
f 290/5/6 291/5/6 298/5/6
f 297/4/6 290/4/6 298/4/6
f 291/6/6 292/6/6 299/6/6
f 298/5/6 291/5/6 299/5/6
f 292/5/6 293/5/6 300/5/6
f 299/6/6 292/6/6 300/6/6
f 293/4/6 294/4/6 301/4/6
f 300/5/6 293/5/6 301/5/6
f 294/6/6 295/6/6 302/6/6
f 301/4/6 294/4/6 302/4/6
f 295/5/6 287/5/6 303/5/6
f 302/6/6 295/6/6 303/6/6
f 287/8/6 250/8/6 304/8/6
f 303/5/6 287/5/6 304/5/6
f 302/8/6 303/8/6 305/8/6
f 299/8/6 300/8/6 305/8/6
f 303/8/6 304/8/6 305/8/6
f 300/8/6 301/8/6 305/8/6
f 298/8/6 299/8/6 305/8/6
f 297/8/6 298/8/6 305/8/6
f 296/8/6 297/8/6 305/8/6
f 249/8/6 296/8/6 305/8/6
f 301/8/6 302/8/6 305/8/6
f 304/8/6 250/8/6 306/8/6
f 305/8/6 304/8/6 306/8/6
